<svg xmlns="http://www.w3.org/2000/svg" viewBox="0 0 240 240">
  <path d="M220,160h-31.71c-4.12-11.65-15.23-20-28.29-20s-24.17,8.35-28.29,20H20v20h111.71c4.12,11.65,15.23,20,28.29,20s24.17-8.35,28.29-20h31.71v-20ZM160,180c-5.52,0-10-4.48-10-10s4.48-10,10-10,10,4.48,10,10-4.48,10-10,10Z"/>
  <path d="M20,80h31.71c4.12,11.65,15.23,20,28.29,20s24.17-8.35,28.29-20h111.71v-20h-111.71c-4.12-11.65-15.23-20-28.29-20s-24.17,8.35-28.29,20h-31.71v20ZM80,60c5.52,0,10,4.48,10,10s-4.48,10-10,10-10-4.48-10-10,4.48-10,10-10Z"/>
</svg>