<svg xmlns="http://www.w3.org/2000/svg" viewBox="0 0 240 240">
    <path d="M120,40c-45.32,0-82.02,36.71-82.02,82.02,0,36.3,23.48,66.95,56.08,77.82,4.1.72,5.64-1.74,5.64-3.9,0-1.95-.1-8.41-.1-15.28-20.61,3.79-25.94-5.02-27.58-9.64-.92-2.36-4.92-9.64-8.41-11.59-2.87-1.54-6.97-5.33-.1-5.43,6.46-.1,11.07,5.95,12.61,8.41,7.38,12.41,19.17,8.92,23.89,6.77.72-5.33,2.87-8.92,5.23-10.97-18.25-2.05-37.32-9.13-37.32-40.5,0-8.92,3.18-16.3,8.41-22.04-.82-2.05-3.69-10.46.82-21.74,0,0,6.87-2.15,22.56,8.41,6.56-1.85,13.53-2.77,20.51-2.77s13.94.92,20.51,2.77c15.69-10.66,22.56-8.41,22.56-8.41,4.51,11.28,1.64,19.69.82,21.74,5.23,5.74,8.41,13.02,8.41,22.04,0,31.48-19.17,38.45-37.42,40.5,2.97,2.56,5.54,7.48,5.54,15.17,0,10.97-.1,19.79-.1,22.56,0,2.15,1.54,4.72,5.64,3.9,32.4-10.87,55.88-41.63,55.88-77.82,0-45.32-36.71-82.02-82.02-82.02Z"/>
</svg>