<svg xmlns="http://www.w3.org/2000/svg" viewBox="0 0 240 240">
  <path d="M163.07,113.43c-.78-.37-1.56-.73-2.36-1.07-1.39-25.6-15.38-40.26-38.87-40.41-.11,0-.21,0-.32,0-14.05,0-25.73,6-32.92,16.91l12.92,8.86c5.37-8.15,13.8-9.89,20.01-9.89.07,0,.14,0,.21,0,7.73.05,13.57,2.3,17.35,6.68,2.75,3.19,4.59,7.6,5.5,13.17-6.86-1.17-14.27-1.52-22.2-1.07-22.33,1.29-36.69,14.31-35.72,32.41.49,9.18,5.06,17.08,12.88,22.24,6.61,4.36,15.12,6.49,23.96,6.01,11.68-.64,20.84-5.1,27.23-13.24,4.85-6.19,7.92-14.21,9.28-24.31,5.57,3.36,9.69,7.78,11.97,13.09,3.87,9.03,4.1,23.88-8.01,35.98-10.61,10.6-23.37,15.19-42.64,15.33-21.38-.16-37.56-7.02-48.07-20.38-9.85-12.52-14.93-30.6-15.12-53.73.19-23.14,5.28-41.22,15.12-53.73,10.51-13.37,26.69-20.22,48.07-20.38,21.54.16,37.99,7.05,48.91,20.48,5.35,6.59,9.39,14.87,12.05,24.53l15.14-4.04c-3.23-11.89-8.3-22.13-15.21-30.63-14-17.22-34.47-26.04-60.84-26.23h-.11c-26.32.18-46.56,9.04-60.16,26.32-12.1,15.38-18.34,36.78-18.55,63.61v.06s0,.06,0,.06c.21,26.83,6.45,48.23,18.55,63.61,13.6,17.28,33.84,26.14,60.16,26.32h.11c23.4-.16,39.89-6.29,53.48-19.86,17.78-17.76,17.24-40.02,11.38-53.69-4.2-9.8-12.22-17.76-23.18-23.02ZM122.67,151.41c-9.79.55-19.96-3.84-20.46-13.25-.37-6.98,4.97-14.76,21.06-15.69,1.84-.11,3.65-.16,5.43-.16,5.85,0,11.31.57,16.29,1.65-1.85,23.16-12.73,26.92-22.31,27.44Z"/>
</svg>