<svg xmlns="http://www.w3.org/2000/svg" viewBox="0 0 240 240">
  <path d="M196.47,96.43c-3.49,7.74-9.37,14.16-16.71,18.34-5.83,3.32-12.57,5.23-19.76,5.23-22.09,0-40-17.91-40-40,0-7.19,1.91-13.93,5.23-19.76,4.18-7.33,10.6-13.21,18.34-16.71-7.45-2.29-15.36-3.53-23.57-3.53-1.63,0-3.24.06-4.85.16-41.92,2.51-75.15,37.29-75.15,79.84s35.82,80,80,80,77.33-33.23,79.84-75.15c.1-1.61.16-3.22.16-4.85,0-8.2-1.24-16.12-3.53-23.57ZM120,180c-33.14,0-60-26.86-60-60,0-27.08,17.94-49.96,42.58-57.42-1.67,5.51-2.58,11.36-2.58,17.42,0,33.14,26.86,60,60,60,6.06,0,11.91-.91,17.42-2.58-7.47,24.64-30.35,42.58-57.42,42.58Z"/>
</svg>