<svg xmlns="http://www.w3.org/2000/svg" viewBox="0 0 240 240">
  <path d="M177.28,104.85c6.44,5.28,11.95,10.62,16.27,15.15-4.3,4.5-9.78,9.81-16.17,15.06l14.2,14.2c17.58-14.75,28.41-29.26,28.41-29.26,0,0-44.77-60-100-60-5.45,0-10.81.59-16.02,1.65l18.41,18.41c21.42.91,41.57,13.86,54.9,24.8Z"/>
  <path d="M175.45,161.31L60.04,45.9l-17.07,17.07,18.08,18.08c-24.88,17.29-41.05,38.95-41.05,38.95,0,0,44.77,60,100,60,11.62,0,22.77-2.66,33.14-6.86l23.89,23.89,17.07-17.07-18.18-18.18-.47-.47ZM120,160c-22.31,0-43.46-13.51-57.28-24.85-6.44-5.28-11.95-10.62-16.27-15.15,4.32-4.53,9.83-9.87,16.27-15.15,3.75-3.07,8.04-6.31,12.75-9.39l15.84,15.84c-.85,2.77-1.3,5.71-1.3,8.76,0,16.57,13.43,30,30,30,3.05,0,5.99-.46,8.76-1.3l8.66,8.66c-5.65,1.61-11.49,2.58-17.42,2.58Z"/>
</svg>