<svg xmlns="http://www.w3.org/2000/svg" version="1.1" viewBox="0 0 240 240">
  <path d="M120,70.9c-27.1,0-49.1,22-49.1,49.1s22,49.1,49.1,49.1,49.1-22,49.1-49.1-22-49.1-49.1-49.1ZM120,152.7c-18.1,0-32.7-14.6-32.7-32.7s14.6-32.7,32.7-32.7,32.7,14.6,32.7,32.7-14.7,32.7-32.7,32.7Z"/>
  <circle cx="169.1" cy="70.9" r="8.2"/>
  <path d="M204.6,56.8c-4.7-9.2-12.2-16.8-21.5-21.5-10.5-5.3-24.2-5.3-51.7-5.3h-22.9c-27.5,0-41.2,0-51.7,5.3-9.2,4.7-16.8,12.2-21.5,21.5-5.3,10.5-5.3,24.2-5.3,51.7v22.9c0,27.5,0,41.2,5.3,51.7,4.7,9.2,12.2,16.8,21.5,21.5,10.5,5.3,24.2,5.3,51.7,5.3h22.9c27.5,0,41.2,0,51.7-5.3,9.2-4.7,16.8-12.2,21.5-21.5,5.3-10.5,5.3-24.2,5.3-51.7v-22.9c0-27.5,0-41.2-5.3-51.7ZM193.6,131.4c0,14,0,23.5-.6,30.9-.6,7.2-1.7,10.8-3,13.4-3.1,6.2-8.1,11.2-14.3,14.3-2.6,1.3-6.2,2.4-13.4,3-7.4.6-16.9.6-30.9.6h-22.9c-14,0-23.5,0-30.9-.6-7.2-.6-10.8-1.6-13.4-3-6.2-3.1-11.2-8.1-14.3-14.3-1.3-2.6-2.4-6.2-3-13.4-.6-7.4-.6-16.9-.6-30.9v-22.9c0-14,0-23.5.6-30.9.6-7.2,1.7-10.8,3-13.4,3.1-6.2,8.1-11.2,14.3-14.3,2.6-1.3,6.2-2.4,13.4-2.9,7.4-.6,16.9-.6,30.9-.6h22.9c14,0,23.5,0,30.9.6,7.2.6,10.8,1.7,13.4,3,6.2,3.1,11.2,8.1,14.3,14.3,1.3,2.6,2.4,6.2,3,13.4.6,7.4.6,16.9.6,30.9v22.9Z"/>
</svg>