<svg xmlns="http://www.w3.org/2000/svg" viewBox="0 0 240 240">
  <path d="M158.93,38.24c-15.21,0-28.98,6.17-38.93,16.15-9.96-9.98-23.72-16.15-38.93-16.15-48.94-.14-73.25,60.03-38.85,93.93l-.04.04,77.78,77.78,77.78-77.78h0c34.47-33.91,10.15-94.12-38.8-93.98ZM193.93,93.24c0,9.71-3.95,18.49-10.34,24.83h0c-19.81,19.82-43.77,43.77-63.6,63.6-19.84-19.84-43.81-43.81-63.64-63.64h0c-21.91-21.58-6.45-59.88,24.71-59.79,19.29-.15,35.13,16.05,35,35h7.87c-.02-9.24,3.76-18.25,10.17-24.66,21.55-21.97,59.93-6.51,59.83,24.66Z"/>
</svg>