<svg xmlns="http://www.w3.org/2000/svg" viewBox="0 0 240 240">
  <path d="M132.39,40.96c-4.04-.63-8.18-.96-12.39-.96s-8.35.33-12.39.96c-38.25,5.97-67.61,39.14-67.61,79.04s29.36,73.06,67.61,79.04c4.04.63,8.18.96,12.39.96s8.35-.33,12.39-.96c38.25-5.97,67.61-39.14,67.61-79.04s-29.36-73.06-67.61-79.04ZM120,60.26c3.75,7.66,8.03,17.91,11.05,29.74h-22.1c3.02-11.83,7.3-22.08,11.05-29.74ZM96.02,65.02c-2.89,7.37-5.62,15.79-7.64,24.98h-20.3c6.39-11.02,16.19-19.83,27.95-24.98ZM60.85,130c-.55-3.25-.85-6.59-.85-10s.3-6.75.85-10h24.55c-.25,3.28-.4,6.61-.4,10s.15,6.72.4,10h-24.55ZM68.07,150h20.3c2.02,9.2,4.75,17.62,7.64,24.98-11.76-5.15-21.55-13.96-27.95-24.98ZM120,179.74c-3.75-7.66-8.03-17.91-11.05-29.74h22.1c-3.02,11.83-7.3,22.08-11.05,29.74ZM134.53,130h-29.05c-.3-3.28-.47-6.61-.47-10s.18-6.72.47-10h29.05c.3,3.28.47,6.61.47,10s-.18,6.72-.47,10ZM171.93,90h-20.3c-2.02-9.2-4.75-17.62-7.64-24.98,11.76,5.15,21.55,13.96,27.95,24.98ZM143.98,174.98c2.89-7.37,5.62-15.79,7.64-24.98h20.3c-6.39,11.02-16.19,19.83-27.95,24.98ZM154.6,130c.25-3.28.4-6.61.4-10s-.15-6.72-.4-10h24.55c.55,3.25.85,6.59.85,10s-.3,6.75-.85,10h-24.55Z"/>
</svg>