<svg xmlns="http://www.w3.org/2000/svg" viewBox="0 0 240 240">
  <path d="M120,90c-16.57,0-30,13.43-30,30s13.43,30,30,30,30-13.43,30-30-13.43-30-30-30ZM120,130c-5.52,0-10-4.48-10-10s4.48-10,10-10,10,4.48,10,10-4.48,10-10,10Z"/>
  <path d="M221.6,144.02l-17.32-10h0s-14.53-8.39-14.53-8.39c.15-1.86.24-3.73.24-5.63s-.09-3.77-.24-5.63l14.53-8.39,17.32-10-10-17.32-10-17.32h0l-10-17.32h0s-17.32,10-17.32,10h0s-14.54,8.39-14.54,8.39c-3.08-2.13-6.33-4.02-9.74-5.64V20h-60v20h0v16.77c-3.41,1.62-6.66,3.51-9.74,5.64l-14.54-8.39-17.32-10-10,17.32-10,17.32h0l-10,17.32h0,0s17.32,10,17.32,10h0s14.53,8.39,14.53,8.39c-.15,1.86-.24,3.73-.24,5.63s.09,3.77.24,5.63l-14.53,8.39-17.32,10,10,17.32,10,17.32h0l10,17.32h0s17.32-10,17.32-10h0s14.54-8.39,14.54-8.39c3.08,2.13,6.33,4.02,9.74,5.64v36.77h40s20,0,20,0h0s0,0,0,0v-20h0v-16.77c3.41-1.62,6.67-3.51,9.74-5.64l14.54,8.39,17.32,10,10-17.32,10-17.32h0l10-17.32h0ZM184.28,168.66l-19.11-11.03-7.76-4.48c-7.05,7.96-16.6,13.65-27.42,15.85v20.28h0v10.72h-20v-30h0v-1c-10.82-2.2-20.36-7.89-27.42-15.85l-17.57,10.14h0l-9.3,5.37-10-17.32,25.98-15h0l.88-.51c-1.66-4.98-2.57-10.3-2.57-15.83s.91-10.86,2.57-15.83l-17.57-10.15h0l-9.28-5.36,10-17.32,25.98,15h0s.88.51.88.51c7.05-7.96,16.6-13.65,27.42-15.85v-1h0v-30h20v31c10.82,2.2,20.36,7.89,27.42,15.85l12.43-7.18,14.43-8.33,10,17.32-19.76,11.41-7.1,4.1c1.66,4.98,2.57,10.3,2.57,15.83s-.91,10.86-2.57,15.83l.88.51h0l25.98,15-10,17.32Z"/>
</svg>