
<svg xmlns="http://www.w3.org/2000/svg" viewBox="0 0 240 240">
    <path d="M104.44,114.79c8.83-4.22,13.44-10.61,13.44-20.56,0-19.61-14.61-24.39-31.47-24.39h-46.42v98.44h47.72c17.89,0,34.69-8.58,34.69-28.58,0-12.36-5.86-21.5-17.97-24.92h0ZM61.64,86.65h20.31c7.81,0,14.83,2.19,14.83,11.25,0,8.36-5.47,11.72-13.19,11.72h-21.94s0-22.97,0-22.97ZM84.78,151.57h-23.14v-27.11h23.58c9.53,0,15.56,3.97,15.56,14.06s-7.19,13.06-16,13.06h0ZM184.36,84.71h-39.92v-9.69h39.92v9.69h0ZM200,133.68c0-21.08-12.33-38.67-34.69-38.67s-36.47,16.33-36.47,37.72,13.97,37.42,36.47,37.42c17.03,0,28.06-7.67,33.36-23.97h-17.28c-1.86,6.08-9.53,9.31-15.47,9.31-11.47,0-17.5-6.72-17.5-18.14h51.42c.08-1.17.17-2.42.17-3.67ZM148.44,125.01c.64-9.36,6.86-15.22,16.25-15.22s14.78,5.78,15.61,15.22h-31.86Z"/>
</svg>