<?xml version="1.0" encoding="UTF-8"?>
<svg id="Calque_1" data-name="Calque 1" xmlns="http://www.w3.org/2000/svg" viewBox="0 0 240 240">
  <defs>
    <style>
      .cls-1 {
        fill: #1d1d1b;
      }
    </style>
  </defs>
  <path class="cls-1" d="M119.85,190c5.39,0,9.76-4.37,9.76-9.76s-4.37-9.76-9.76-9.76-9.76,4.37-9.76,9.76,4.37,9.76,9.76,9.76Z"/>
  <path class="cls-1" d="M180,40.07c0-11.13-9.02-20.15-20.15-20.15h-79.7c-5.58,0-10.64,2.27-14.28,5.94-3.67,3.65-5.94,8.7-5.94,14.28v159.78s0,.05,0,.07h0c0,11.13,9.02,20.15,20.15,20.15h79.7c11.13,0,20.15-9.02,20.15-20.15h0s0-.05,0-.07V40.15s0-.05,0-.07h.08ZM159.78,200h-79.7V40.07h79.7v159.93Z"/>
</svg>