<svg width="240" height="240" viewBox="0 0 240 240" fill="none" xmlns="http://www.w3.org/2000/svg">
<path d="M160 170H140V190H160V170Z" fill="black"/>
<path d="M220 130H200V170H220V130Z" fill="black"/>
<path d="M40 130H20V170H40V130Z" fill="black"/>
<path d="M100 170H80V190H100V170Z" fill="black"/>
<path d="M160 90H80V70H60V110H40V130H60V170H80V150H160V170H180V130H200V110H180V70H160V90ZM80 130V110H100V130H80ZM160 130H140V110H160V130Z" fill="black"/>
<path d="M200 50H180V70H200V50Z" fill="black"/>
<path d="M220 70H200V90H220V70Z" fill="black"/>
<path d="M60 50H40V70H60V50Z" fill="black"/>
<path d="M40 70H20V90H40V70Z" fill="black"/>
</svg>
