<svg width="240" height="240" viewBox="0 0 240 240" fill="none" xmlns="http://www.w3.org/2000/svg">
<path d="M158.821 34.0002C143.611 34.0002 129.841 40.1702 119.891 50.1502C109.931 40.1802 96.171 34.0002 80.961 34.0002C32.021 33.8602 7.70103 94.0302 42.111 127.93L42.071 127.97L119.851 205.75L197.631 127.97C232.101 94.0702 207.771 33.8602 158.821 34.0002ZM193.821 89.0002C193.821 98.7102 189.871 107.49 183.481 113.83C163.671 133.65 139.711 157.6 119.881 177.43C100.041 157.59 76.071 133.62 56.241 113.79C34.331 92.2102 49.791 53.9102 80.951 54.0002C100.241 53.8502 116.081 70.0502 115.951 89.0002H123.821C123.801 79.7602 127.581 70.7502 133.991 64.3402C155.541 42.3702 193.921 57.8302 193.821 89.0002Z" fill="black"/>
</svg>
