<svg width="240" height="240" viewBox="0 0 240 240" fill="none" xmlns="http://www.w3.org/2000/svg">
<path d="M177.28 102.96C183.72 108.24 189.23 113.58 193.55 118.11C189.25 122.61 183.77 127.92 177.38 133.17L191.58 147.37C209.16 132.62 219.99 118.11 219.99 118.11C219.99 118.11 175.22 58.11 119.99 58.11C114.54 58.11 109.18 58.7 103.97 59.76L122.38 78.17C143.8 79.08 163.95 92.03 177.28 102.97V102.96Z" fill="black"/>
<path d="M175.45 159.42L60.04 44L42.97 61.07L61.05 79.15C36.17 96.45 20 118.1 20 118.1C20 118.1 64.77 178.1 120 178.1C131.62 178.1 142.77 175.44 153.14 171.24L177.03 195.13L194.1 178.06L175.92 159.88L175.45 159.41V159.42ZM120 158.1C97.69 158.1 76.54 144.59 62.72 133.25C56.28 127.97 50.77 122.63 46.45 118.1C50.77 113.57 56.28 108.23 62.72 102.95C66.47 99.88 70.76 96.64 75.47 93.56L91.31 109.4C90.46 112.17 90.01 115.11 90.01 118.16C90.01 134.73 103.44 148.16 120.01 148.16C123.06 148.16 126 147.7 128.77 146.86L137.43 155.52C131.78 157.13 125.94 158.1 120.01 158.1H120Z" fill="black"/>
</svg>
