<svg width="240" height="240" viewBox="0 0 240 240" fill="none" xmlns="http://www.w3.org/2000/svg">
<path fill-rule="evenodd" clip-rule="evenodd" d="M119.93 90.0703C136.5 90.0703 149.93 103.5 149.93 120.07C149.929 136.64 136.5 150.07 119.93 150.07C103.36 150.07 89.9299 136.64 89.9297 120.07C89.9297 103.5 103.36 90.0705 119.93 90.0703ZM119.93 110.07C114.41 110.07 109.93 114.55 109.93 120.07C109.93 125.59 114.41 130.07 119.93 130.07C125.45 130.07 129.929 125.59 129.93 120.07C129.93 114.55 125.45 110.07 119.93 110.07Z" fill="black"/>
<path fill-rule="evenodd" clip-rule="evenodd" d="M120 60C175.23 60 220 120 220 120C220 120 175.23 180 120 180C64.77 180 20 120 20 120C20 120 64.77 60 120 60ZM120 80C97.7 80 76.5397 93.5096 62.7197 104.85C56.2798 110.13 50.7702 115.47 46.4502 120C50.7702 124.53 56.2798 129.87 62.7197 135.15C76.5397 146.49 97.7 160 120 160C142.3 160 163.46 146.49 177.28 135.15C183.72 129.87 189.23 124.53 193.55 120C189.23 115.47 183.72 110.13 177.28 104.85C163.46 93.5096 142.31 80 120 80Z" fill="black"/>
</svg>
