<svg width="240" height="240" viewBox="0 0 240 240" fill="none" xmlns="http://www.w3.org/2000/svg">
<path d="M120 135C128.284 135 135 128.284 135 120C135 111.716 128.284 105 120 105C111.716 105 105 111.716 105 120C105 128.284 111.716 135 120 135Z" fill="black"/>
<path d="M120 90C128.284 90 135 83.2843 135 75C135 66.7157 128.284 60 120 60C111.716 60 105 66.7157 105 75C105 83.2843 111.716 90 120 90Z" fill="black"/>
<path d="M120 180C128.284 180 135 173.284 135 165C135 156.716 128.284 150 120 150C111.716 150 105 156.716 105 165C105 173.284 111.716 180 120 180Z" fill="black"/>
</svg>
