<svg width="240" height="240" viewBox="0 0 240 240" fill="none" xmlns="http://www.w3.org/2000/svg">
<path d="M120 73C103.43 73 90 86.43 90 103C90 119.57 103.43 133 120 133C136.57 133 150 119.57 150 103C150 86.43 136.57 73 120 73ZM120 113C114.48 113 110 108.52 110 103C110 97.48 114.48 93 120 93C125.52 93 130 97.48 130 103C130 108.52 125.52 113 120 113Z" fill="black"/>
<path d="M120 43C153.14 43 180 69.86 180 103C180 153.12 120 193 120 193C120 193 60 153 60 103C60 69.86 86.86 43 120 43ZM120 23C75.89 23 40 58.89 40 103C40 117.66 43.92 132.6 51.64 147.41C57.43 158.51 65.39 169.59 75.3 180.32C91.73 198.12 108.21 209.18 108.9 209.65L119.98 217.04L131.07 209.67C131.76 209.21 148.25 198.17 164.69 180.38C174.6 169.65 182.56 158.58 188.36 147.47C196.08 132.66 200 117.7 200 103.02C200 58.89 164.11 23 120 23Z" fill="black"/>
</svg>
