<svg width="240" height="240" viewBox="0 0 240 240" fill="none" xmlns="http://www.w3.org/2000/svg">
<path d="M120 70C92.39 70 70 92.39 70 120C70 147.61 92.39 170 120 170C147.61 170 170 147.61 170 120C170 92.39 147.61 70 120 70ZM120 150C103.43 150 90 136.57 90 120C90 103.43 103.43 90 120 90C136.57 90 150 103.43 150 120C150 136.57 136.57 150 120 150Z" fill="black"/>
<path d="M130 20H110V50H130V20Z" fill="black"/>
<path d="M56.3616 42.2224L42.2195 56.3645L63.4327 77.5777L77.5748 63.4356L56.3616 42.2224Z" fill="black"/>
<path d="M20 110V130H50V110H20Z" fill="black"/>
<path d="M42.2165 183.644L56.3586 197.786L77.5718 176.573L63.4297 162.431L42.2165 183.644Z" fill="black"/>
<path d="M110 220H130V190H110V220Z" fill="black"/>
<path d="M183.65 197.778L197.792 183.635L176.579 162.422L162.437 176.564L183.65 197.778Z" fill="black"/>
<path d="M220 130V110H190V130H220Z" fill="black"/>
<path d="M197.772 56.356L183.63 42.2139L162.417 63.4271L176.559 77.5692L197.772 56.356Z" fill="black"/>
</svg>
