<svg width="240" height="240" viewBox="0 0 240 240" fill="none" xmlns="http://www.w3.org/2000/svg">
<path d="M158.596 114.164C157.906 113.835 157.216 113.515 156.508 113.213C155.279 90.4561 142.903 77.4243 122.123 77.291C122.026 77.291 121.937 77.291 121.84 77.291C109.411 77.291 99.0791 82.6246 92.7187 92.3229L104.148 100.199C108.898 92.9541 116.356 91.4073 121.849 91.4073C121.911 91.4073 121.973 91.4073 122.035 91.4073C128.873 91.4517 134.039 93.4519 137.383 97.3454C139.816 100.181 141.443 104.101 142.248 109.053C136.18 108.013 129.625 107.702 122.61 108.102C102.856 109.248 90.1534 120.822 91.0114 136.912C91.4449 145.072 95.4876 152.095 102.405 156.682C108.253 160.558 115.781 162.451 123.601 162.025C133.933 161.456 142.036 157.491 147.689 150.255C151.979 144.752 154.695 137.623 155.898 128.645C160.825 131.632 164.47 135.561 166.487 140.281C169.91 148.308 170.114 161.509 159.401 172.265C150.015 181.688 138.727 185.768 121.681 185.893C102.768 185.75 88.4549 179.652 79.1576 167.776C70.4442 156.646 65.9503 140.574 65.7823 120.013C65.9503 99.4433 70.453 83.3713 79.1576 72.2507C88.4549 60.3656 102.768 54.2763 121.681 54.1341C140.736 54.2763 155.287 60.4011 164.947 72.3396C169.68 78.1977 173.254 85.5581 175.607 94.1452L189 90.5539C186.143 79.9844 181.658 70.8817 175.545 63.3257C163.16 48.0093 145.052 40.16 121.725 40H121.628C98.3449 40.16 80.4403 48.036 68.4096 63.3969C57.7058 77.0776 52.1858 96.1009 52 119.951V120.004V120.058C52.1858 143.908 57.7058 162.931 68.4096 176.603C80.4403 191.964 98.3449 199.84 121.628 200H121.725C142.425 199.858 157.012 194.409 169.034 182.346C184.763 166.558 184.285 146.77 179.101 134.619C175.386 125.907 168.291 118.831 158.596 114.155V114.164ZM122.857 147.926C114.197 148.415 105.201 144.512 104.758 136.148C104.431 129.943 109.155 123.027 123.388 122.2C125.016 122.102 126.617 122.058 128.192 122.058C133.367 122.058 138.197 122.565 142.602 123.525C140.966 144.112 131.341 147.455 122.866 147.917L122.857 147.926Z" fill="black"/>
</svg>
