<svg width="240" height="240" viewBox="0 0 240 240" fill="none" xmlns="http://www.w3.org/2000/svg">
<path fill-rule="evenodd" clip-rule="evenodd" d="M120.004 76.3644C95.9053 76.3644 76.3665 95.9021 76.3665 120C76.3665 144.098 95.9053 163.635 120.004 163.635C144.104 163.635 163.642 144.098 163.642 120C163.642 95.9021 144.104 76.3644 120.004 76.3644ZM120.004 149.093C103.941 149.093 90.9095 136.071 90.9095 120C90.9095 103.929 103.932 90.9066 120.004 90.9066C136.076 90.9066 149.099 103.929 149.099 120C149.099 136.071 136.076 149.093 120.004 149.093Z" fill="black"/>
<path d="M163.642 83.6355C167.658 83.6355 170.914 80.3801 170.914 76.3644C170.914 72.3487 167.658 69.0933 163.642 69.0933C159.626 69.0933 156.371 72.3487 156.371 76.3644C156.371 80.3801 159.626 83.6355 163.642 83.6355Z" fill="black"/>
<path fill-rule="evenodd" clip-rule="evenodd" d="M195.253 63.8222C191.066 55.6089 184.39 48.9333 176.185 44.7556C166.843 40 154.629 40 130.183 40H109.817C85.3803 40 73.1574 40 63.8235 44.7556C55.6098 48.9422 48.9338 55.6178 44.7558 63.8222C40 73.1644 40 85.3778 40 109.822V130.187C40 154.622 40 166.844 44.7558 176.178C48.9427 184.391 55.6186 191.067 63.8235 195.244C73.1574 200 85.3803 200 109.817 200H130.183C154.62 200 166.843 200 176.176 195.244C184.39 191.058 191.066 184.382 195.244 176.178C200 166.844 200 154.622 200 130.187V109.822C200 85.3867 200 73.1644 195.244 63.8311L195.253 63.8222ZM185.466 130.178C185.466 142.64 185.457 151.102 184.924 157.653C184.399 164.027 183.457 167.289 182.301 169.564C179.51 175.04 175.065 179.484 169.589 182.276C167.314 183.431 164.051 184.382 157.678 184.898C151.126 185.431 142.663 185.44 130.201 185.44H109.835C97.3721 185.44 88.9005 185.431 82.3579 184.898C75.9842 184.373 72.7218 183.431 70.4461 182.276C64.9703 179.484 60.5256 175.04 57.7343 169.564C56.5787 167.289 55.6275 164.027 55.1119 157.653C54.5786 151.102 54.5697 142.64 54.5697 130.178V109.813C54.5697 97.3511 54.5786 88.8889 55.1119 82.3378C55.6364 75.9644 56.5787 72.7022 57.7343 70.4267C60.5256 64.9511 64.9703 60.4978 70.4461 57.7156C72.7218 56.56 75.9842 55.6089 82.3579 55.0933C88.9005 54.56 97.3721 54.5511 109.835 54.5511H130.201C142.663 54.5511 151.126 54.56 157.678 55.0933C164.051 55.6178 167.314 56.56 169.589 57.7156C175.065 60.5067 179.51 64.9511 182.301 70.4267C183.457 72.7022 184.408 75.9644 184.924 82.3378C185.457 88.8889 185.466 97.3511 185.466 109.813V130.178Z" fill="black"/>
</svg>
