<svg width="240" height="240" viewBox="0 0 240 240" fill="none" xmlns="http://www.w3.org/2000/svg">
<path fill-rule="evenodd" clip-rule="evenodd" d="M120.02 40C74.71 40 38 76.71 38 122.02C38 158.32 61.48 188.97 94.08 199.84C98.18 200.56 99.72 198.1 99.72 195.94C99.72 193.99 99.62 187.53 99.62 180.66C79.01 184.45 73.68 175.64 72.04 171.02C71.12 168.66 67.12 161.38 63.63 159.43C60.76 157.89 56.66 154.1 63.53 154C69.99 153.9 74.6 159.95 76.14 162.41C83.52 174.82 95.31 171.33 100.03 169.18C100.75 163.85 102.9 160.26 105.26 158.21C87.01 156.16 67.94 149.08 67.94 117.71C67.94 108.79 71.12 101.41 76.35 95.67C75.53 93.62 72.66 85.21 77.17 73.93C77.17 73.93 84.04 71.78 99.73 82.34C106.29 80.49 113.26 79.57 120.24 79.57C127.22 79.57 134.18 80.49 140.75 82.34C156.44 71.68 163.31 73.93 163.31 73.93C167.82 85.21 164.95 93.62 164.13 95.67C169.36 101.41 172.54 108.69 172.54 117.71C172.54 149.19 153.37 156.16 135.12 158.21C138.09 160.77 140.66 165.69 140.66 173.38C140.66 184.35 140.56 193.17 140.56 195.94C140.56 198.09 142.1 200.66 146.2 199.84C178.6 188.97 202.08 158.21 202.08 122.02C202.05 76.71 165.34 40 120.02 40Z" fill="black"/>
</svg>
