<svg width="240" height="240" viewBox="0 0 240 240" fill="none" xmlns="http://www.w3.org/2000/svg">
<path d="M145 135C153.284 135 160 128.284 160 120C160 111.716 153.284 105 145 105C136.716 105 130 111.716 130 120C130 128.284 136.716 135 145 135Z" fill="black"/>
<path d="M95 135C103.284 135 110 128.284 110 120C110 111.716 103.284 105 95 105C86.7157 105 80 111.716 80 120C80 128.284 86.7157 135 95 135Z" fill="black"/>
<path d="M145 90C153.284 90 160 83.2843 160 75C160 66.7157 153.284 60 145 60C136.716 60 130 66.7157 130 75C130 83.2843 136.716 90 145 90Z" fill="black"/>
<path d="M95 90C103.284 90 110 83.2843 110 75C110 66.7157 103.284 60 95 60C86.7157 60 80 66.7157 80 75C80 83.2843 86.7157 90 95 90Z" fill="black"/>
<path d="M145 180C153.284 180 160 173.284 160 165C160 156.716 153.284 150 145 150C136.716 150 130 156.716 130 165C130 173.284 136.716 180 145 180Z" fill="black"/>
<path d="M95 180C103.284 180 110 173.284 110 165C110 156.716 103.284 150 95 150C86.7157 150 80 156.716 80 165C80 173.284 86.7157 180 95 180Z" fill="black"/>
</svg>
