<svg width="240" height="240" viewBox="0 0 240 240" fill="none" xmlns="http://www.w3.org/2000/svg">
<path d="M176.832 62.9941C191.746 77.6054 201 97.9722 201 120.5C201 164.959 164.959 201 120.5 201C76.0412 201 40.0001 164.959 40 120.5C40.0001 98.0864 49.1605 77.812 63.9414 63.2168L78.084 77.3594C66.9221 88.3349 60.0001 103.609 60 120.5C60.0001 153.913 87.0868 181 120.5 181C153.913 181 181 153.913 181 120.5C181 103.495 173.983 88.1288 162.688 77.1377L176.832 62.9941Z" fill="black"/>
<path d="M130 40V120H110V40H130Z" fill="black"/>
</svg>
