<svg width="240" height="240" viewBox="0 0 240 240" fill="none" xmlns="http://www.w3.org/2000/svg">
<path d="M104.44 114.94C113.27 110.72 117.88 104.33 117.88 94.38C117.89 74.78 103.28 70 86.42 70H40V168.44H87.72C105.61 168.44 122.41 159.86 122.41 139.86C122.41 127.5 116.55 118.36 104.44 114.94ZM61.64 86.81H81.95C89.76 86.81 96.78 89 96.78 98.06C96.78 106.42 91.31 109.78 83.59 109.78H61.65V86.81H61.64ZM84.78 151.72H61.64V124.61H85.22C94.75 124.61 100.78 128.58 100.78 138.67C100.78 148.76 93.59 151.73 84.78 151.73V151.72ZM184.36 84.86H144.44V75.17H184.36V84.86ZM200 133.83C200 112.75 187.67 95.16 165.31 95.16C142.95 95.16 128.84 111.49 128.84 132.88C128.84 154.27 142.81 170.3 165.31 170.3C182.34 170.3 193.37 162.63 198.67 146.33H181.39C179.53 152.41 171.86 155.64 165.92 155.64C154.45 155.64 148.42 148.92 148.42 137.5H199.84C199.92 136.33 200.01 135.08 200.01 133.83H200ZM148.44 125.17C149.08 115.81 155.3 109.95 164.69 109.95C174.08 109.95 179.47 115.73 180.3 125.17H148.44Z" fill="black"/>
</svg>
