<svg width="240" height="240" viewBox="0 0 240 240" fill="none" xmlns="http://www.w3.org/2000/svg">
<path d="M120 135C128.284 135 135 128.284 135 120C135 111.716 128.284 105 120 105C111.716 105 105 111.716 105 120C105 128.284 111.716 135 120 135Z" fill="black"/>
<path d="M165 135C173.284 135 180 128.284 180 120C180 111.716 173.284 105 165 105C156.716 105 150 111.716 150 120C150 128.284 156.716 135 165 135Z" fill="black"/>
<path d="M75 135C83.2843 135 90 128.284 90 120C90 111.716 83.2843 105 75 105C66.7157 105 60 111.716 60 120C60 128.284 66.7157 135 75 135Z" fill="black"/>
<path d="M120 90C128.284 90 135 83.2843 135 75C135 66.7157 128.284 60 120 60C111.716 60 105 66.7157 105 75C105 83.2843 111.716 90 120 90Z" fill="black"/>
<path d="M165 90C173.284 90 180 83.2843 180 75C180 66.7157 173.284 60 165 60C156.716 60 150 66.7157 150 75C150 83.2843 156.716 90 165 90Z" fill="black"/>
<path d="M75 90C83.2843 90 90 83.2843 90 75C90 66.7157 83.2843 60 75 60C66.7157 60 60 66.7157 60 75C60 83.2843 66.7157 90 75 90Z" fill="black"/>
<path d="M120 180C128.284 180 135 173.284 135 165C135 156.716 128.284 150 120 150C111.716 150 105 156.716 105 165C105 173.284 111.716 180 120 180Z" fill="black"/>
<path d="M165 180C173.284 180 180 173.284 180 165C180 156.716 173.284 150 165 150C156.716 150 150 156.716 150 165C150 173.284 156.716 180 165 180Z" fill="black"/>
<path d="M75 180C83.2843 180 90 173.284 90 165C90 156.716 83.2843 150 75 150C66.7157 150 60 156.716 60 165C60 173.284 66.7157 180 75 180Z" fill="black"/>
</svg>
