<svg width="240" height="240" viewBox="0 0 240 240" fill="none" xmlns="http://www.w3.org/2000/svg">
<path d="M120 20C64.77 20 20 64.77 20 120C20 175.23 64.77 220 120 220C175.23 220 220 175.23 220 120C220 64.77 175.23 20 120 20ZM120 200C75.82 200 40 164.18 40 120C40 75.82 75.82 40 120 40C164.18 40 200 75.82 200 120C200 164.18 164.18 200 120 200Z" fill="black"/>
<path d="M155.352 84.6432H135.355V121.215L91.7122 77.5721L77.5701 91.7142L121.213 135.357L84.6553 135.357V155.354L155.352 155.354V84.6432Z" fill="black"/>
</svg>
