<svg width="240" height="240" viewBox="0 0 240 240" fill="none" xmlns="http://www.w3.org/2000/svg">
<path d="M120 20C175.23 20 220 64.77 220 120C220 175.23 175.23 220 120 220C64.77 220 20 175.23 20 120C20 64.77 64.77 20 120 20ZM120 200C164.18 200 200 164.18 200 120C200 75.82 164.18 40 120 40C75.82 40 40 75.82 40 120C40 164.18 75.82 200 120 200Z" fill="black"/>
<path d="M84.6482 84.6432H104.645V121.215L148.288 77.5721L162.43 91.7142L118.787 135.357L155.345 135.357V155.354L84.6482 155.354V84.6432Z" fill="black"/>
</svg>
