<svg width="240" height="240" viewBox="0 0 240 240" fill="none" xmlns="http://www.w3.org/2000/svg">
<path d="M120 20C64.77 20 20 64.77 20 120C20 175.23 64.77 220 120 220C175.23 220 220 175.23 220 120C220 64.77 175.23 20 120 20ZM120 200C75.82 200 40 164.18 40 120C40 75.82 75.82 40 120 40C164.18 40 200 75.82 200 120C200 164.18 164.18 200 120 200Z" fill="black"/>
<path d="M70.005 119.995L84.145 134.135L110.005 108.275L110.005 169.995L130.005 169.995L130.005 108.275L155.855 134.125L169.995 119.985L120.005 69.995L70.005 119.995Z" fill="black"/>
</svg>
