<svg width="240" height="240" viewBox="0 0 240 240" fill="none" xmlns="http://www.w3.org/2000/svg">
<path d="M165.314 59.4653C146.971 73.2615 127.257 101.196 120 116.189C112.743 101.196 93.0286 73.2615 74.6857 59.4653C61.4286 49.5457 40 41.8494 40 66.3634C40 71.2662 42.8 107.467 44.4571 113.339C50.1714 133.748 70.9714 138.993 89.4857 135.801C57.1429 141.331 48.9143 159.574 66.6857 177.817C100.457 212.478 115.2 169.094 118.971 157.977C119.657 155.925 120 154.956 120 155.811C120 154.956 120.343 155.925 121.029 157.977C124.8 169.094 139.6 212.478 173.314 177.817C191.086 159.574 182.857 141.274 150.514 135.801C169.029 138.936 189.829 133.748 195.543 113.339C197.2 107.467 200 71.2662 200 66.3634C200 41.8494 178.571 49.5457 165.314 59.5223V59.4653Z" fill="black"/>
</svg>
