<svg width="240" height="240" viewBox="0 0 240 240" fill="none" xmlns="http://www.w3.org/2000/svg">
<path d="M120 20C64.77 20 20 64.77 20 120C20 175.23 64.77 220 120 220C175.23 220 220 175.23 220 120C220 64.77 175.23 20 120 20ZM120 200C75.82 200 40 164.18 40 120C40 75.82 75.82 40 120 40C164.18 40 200 75.82 200 120C200 164.18 164.18 200 120 200Z" fill="black"/>
<path d="M169.995 119.995L155.855 105.855L129.995 131.715L129.995 69.995L109.995 69.995L109.995 131.715L84.145 105.865L70.005 120.005L119.995 169.995L169.995 119.995Z" fill="black"/>
</svg>
