<svg width="240" height="240" viewBox="0 0 240 240" fill="none" xmlns="http://www.w3.org/2000/svg">
<path d="M120 20C64.77 20 20 64.77 20 120C20 175.23 64.77 220 120 220C175.23 220 220 175.23 220 120C220 64.77 175.23 20 120 20ZM120 200C75.82 200 40 164.18 40 120C40 75.82 75.82 40 120 40C164.18 40 200 75.82 200 120C200 164.18 164.18 200 120 200Z" fill="black"/>
<path d="M120 90C125.523 90 130 85.5228 130 80C130 74.4772 125.523 70 120 70C114.477 70 110 74.4772 110 80C110 85.5228 114.477 90 120 90Z" fill="black"/>
<path d="M130 110H110V170H130V110Z" fill="black"/>
</svg>
