<svg width="240" height="240" viewBox="0 0 240 240" fill="none" xmlns="http://www.w3.org/2000/svg">
<path d="M120 20C64.77 20 20 64.77 20 120C20 175.23 64.77 220 120 220C175.23 220 220 175.23 220 120C220 64.77 175.23 20 120 20ZM120 200C75.82 200 40 164.18 40 120C40 75.82 75.82 40 120 40C164.18 40 200 75.82 200 120C200 164.18 164.18 200 120 200Z" fill="black"/>
<path d="M84.6482 84.6432V104.64H121.22L77.5771 148.283L91.7193 162.425L135.362 118.782L135.362 155.34H155.359L155.359 84.6432H84.6482Z" fill="black"/>
</svg>
