<svg width="240" height="240" viewBox="0 0 240 240" fill="none" xmlns="http://www.w3.org/2000/svg">
<path d="M90.3008 194.264C89.3024 185.165 90 176.47 92 168.072L100 133.581C98.7008 129.383 97.6992 124.581 97.6992 119.782C97.6992 108.585 103.101 100.587 111.6 100.587C117.501 100.587 121.802 104.685 121.802 112.584C121.802 115.083 121.302 117.882 120.301 121.081L116.8 132.579C116.099 134.78 115.802 136.879 115.802 138.677C115.802 146.675 121.901 151.173 129.702 151.173C143.603 151.173 153.504 136.777 153.504 118.08C153.504 97.2854 139.904 83.9894 119.805 83.9894C97.4048 83.9894 83.2064 98.5875 83.2064 118.88C83.2064 127.077 85.7056 134.675 90.608 139.874C89.008 142.574 87.3088 143.073 84.7072 143.073C76.7072 143.073 69.1072 131.776 69.1072 116.378C69.1072 89.7833 90.4064 68.5915 120.307 68.5915C151.706 68.5915 171.408 90.4871 171.408 117.479C171.408 144.471 152.208 165.068 131.507 165.068C123.306 165.068 116.106 161.568 111.107 155.268L107.008 171.866C104.806 180.462 101.507 188.563 96.208 196.359C103.709 198.66 111.107 199.958 120.01 199.958C164.208 199.958 200.01 164.165 200.01 119.978C200.01 75.7898 164.202 40 120 40C75.7984 40 40 75.793 40 119.981C40 153.474 60.6016 182.366 90.3008 194.264Z" fill="black"/>
</svg>
