<svg width="240" height="240" viewBox="0 0 240 240" fill="none" xmlns="http://www.w3.org/2000/svg">
<path d="M120 20C175.23 20 220 64.77 220 120C220 175.23 175.23 220 120 220C64.77 220 20 175.23 20 120C20 64.77 64.77 20 120 20ZM120 200C164.18 200 200 164.18 200 120C200 75.82 164.18 40 120 40C75.82 40 40 75.82 40 120C40 164.18 75.82 200 120 200Z" fill="black"/>
<path d="M155.352 84.6432V104.64H118.78L162.423 148.283L148.281 162.425L104.638 118.782L104.638 155.34H84.6409L84.6409 84.6432H155.352Z" fill="black"/>
</svg>
