<svg width="240" height="240" viewBox="0 0 240 240" fill="none" xmlns="http://www.w3.org/2000/svg">
<path d="M211.343 162.43C210.06 158.954 207.623 157.096 204.849 155.558C204.32 155.253 203.855 155.013 203.454 154.821C202.62 154.404 201.787 153.988 200.937 153.539C192.295 148.958 185.545 143.175 180.863 136.335C179.276 134.028 178.185 131.93 177.416 130.232C177.015 129.094 177.031 128.437 177.32 127.845C177.544 127.396 178.121 126.932 178.426 126.691C179.917 125.714 181.44 124.721 182.482 124.048C184.342 122.847 185.801 121.902 186.747 121.245C190.291 118.762 192.776 116.135 194.331 113.187C196.512 109.038 196.8 104.297 195.101 99.8433C192.76 93.66 186.908 89.8154 179.821 89.8154C178.346 89.8154 176.855 89.9756 175.38 90.296C174.995 90.376 174.61 90.4722 174.225 90.5683C174.289 86.3713 174.193 81.8859 173.824 77.4967C172.494 62.0543 167.09 53.9646 161.431 47.5089C159.074 44.8177 154.985 40.877 148.844 37.3688C140.282 32.483 130.582 30 120 30C109.418 30 99.7498 32.483 91.1719 37.3688C84.999 40.893 80.8944 44.8337 78.5536 47.5089C72.9098 53.9646 67.5065 62.0543 66.1597 77.4967C65.7749 81.8859 65.6947 86.3713 65.7589 90.5683C65.374 90.4722 64.9892 90.376 64.6044 90.296C63.1294 89.9756 61.6383 89.8154 60.1632 89.8154C53.0764 89.8154 47.2242 93.66 44.8833 99.8433C43.1998 104.297 43.4723 109.038 45.6529 113.187C47.2081 116.135 49.6933 118.762 53.2367 121.245C54.1827 121.902 55.6417 122.847 57.5016 124.048C58.4957 124.689 59.9708 125.65 61.3978 126.595C61.6222 126.739 62.3918 127.316 62.6484 127.845C62.937 128.453 62.953 129.126 62.5041 130.344C61.7505 132.026 60.6602 134.06 59.121 136.319C54.5354 143.015 47.9938 148.686 39.6243 153.219C35.1991 155.574 30.5814 157.128 28.6414 162.414C27.1663 166.403 28.1283 170.936 31.8641 174.765C33.0987 176.078 34.6379 177.248 36.578 178.321C41.1475 180.836 45.0276 182.069 48.0739 182.918C48.6031 183.079 49.8537 183.479 50.3988 183.96C51.7616 185.145 51.5692 186.939 53.381 189.55C54.4713 191.184 55.7379 192.29 56.7801 193.011C60.58 195.638 64.8449 195.798 69.3664 195.974C73.4549 196.134 78.0886 196.31 83.3636 198.057C85.5602 198.777 87.8369 200.171 90.4664 201.789C96.7996 205.682 105.474 211 119.984 211C134.494 211 143.216 205.65 149.598 201.741C152.211 200.139 154.472 198.745 156.604 198.041C161.895 196.294 166.529 196.118 170.602 195.958C175.123 195.782 179.388 195.622 183.188 192.995C184.39 192.178 185.882 190.832 187.068 188.781C188.367 186.571 188.335 185.017 189.553 183.944C190.05 183.511 191.141 183.127 191.734 182.951C194.812 182.102 198.74 180.868 203.39 178.305C205.442 177.168 207.062 175.934 208.328 174.508C208.344 174.492 208.36 174.476 208.376 174.46C211.872 170.696 212.754 166.291 211.311 162.414M198.452 169.318C190.595 173.659 185.352 173.195 181.296 175.806C177.849 178.033 179.885 182.822 177.384 184.552C174.305 186.683 165.182 184.408 153.414 188.285C143.698 191.489 137.509 200.716 120.032 200.716C102.556 200.716 96.495 191.537 86.6505 188.285C74.8819 184.408 65.7589 186.683 62.6804 184.552C60.1792 182.822 62.2155 178.033 58.7683 175.806C54.6958 173.195 49.4689 173.659 41.6125 169.318C36.61 166.563 39.4479 164.849 41.1154 164.032C69.6069 150.256 74.1443 128.982 74.3528 127.38C74.5933 125.474 74.8659 123.968 72.7655 122.014C70.7292 120.14 61.7024 114.549 59.2012 112.803C55.0485 109.903 53.2367 107.02 54.5675 103.464C55.4974 101.013 57.7902 100.084 60.2273 100.084C60.9809 100.084 61.7505 100.18 62.488 100.34C67.0415 101.333 71.4668 103.608 74.0161 104.217C74.3688 104.297 74.6735 104.345 74.9621 104.345C76.3249 104.345 76.8059 103.656 76.7097 102.102C76.4211 97.1361 75.7156 87.4285 76.5013 78.3777C77.5755 65.9149 81.5999 59.7315 86.3779 54.269C88.6707 51.6418 99.4451 40.2683 120.064 40.2683C140.683 40.2683 151.458 51.6418 153.75 54.269C158.528 59.7315 162.553 65.9149 163.627 78.3777C164.413 87.4446 163.739 97.1361 163.419 102.102C163.306 103.736 163.803 104.345 165.166 104.345C165.439 104.345 165.76 104.313 166.112 104.217C168.662 103.592 173.087 101.317 177.64 100.34C178.378 100.18 179.147 100.084 179.901 100.084C182.322 100.084 184.631 101.013 185.561 103.464C186.908 107.02 185.08 109.903 180.927 112.803C178.426 114.549 169.399 120.124 167.363 122.014C165.262 123.968 165.535 125.458 165.776 127.38C165.984 128.982 170.521 150.256 199.013 164.032C200.68 164.833 203.518 166.547 198.516 169.318" fill="black"/>
</svg>
