<svg width="240" height="240" viewBox="0 0 240 240" fill="none" xmlns="http://www.w3.org/2000/svg">
<path d="M174.688 70.0498C164.246 65.2927 153.216 61.9054 141.885 60C140.335 62.7646 138.934 65.604 137.683 68.5056C125.615 66.6999 113.347 66.6999 101.279 68.5056C100.028 65.604 98.6274 62.7646 97.0767 60C85.7464 61.9303 74.7037 65.3176 64.2488 70.0747C43.489 100.66 37.8614 130.486 40.6752 159.888C52.8309 168.829 66.4373 175.641 80.9066 180C84.1581 175.641 87.047 171.009 89.5231 166.164C84.8209 164.421 80.2813 162.254 75.9543 159.714C77.0923 158.892 78.2053 158.045 79.2808 157.223C104.755 169.153 134.244 169.153 159.719 157.223C160.807 158.107 161.92 158.954 163.045 159.714C158.718 162.266 154.166 164.421 149.451 166.177C151.927 171.021 154.804 175.641 158.068 180C172.55 175.654 186.169 168.854 198.324 159.9C201.626 125.803 192.684 96.2516 174.688 70.0498ZM93.0873 141.806C85.2461 141.806 78.7681 134.72 78.7681 126.002C78.7681 117.285 85.021 110.137 93.0623 110.137C101.104 110.137 107.532 117.285 107.394 126.002C107.256 134.72 101.079 141.806 93.0873 141.806ZM145.912 141.806C138.058 141.806 131.605 134.72 131.605 126.002C131.605 117.285 137.858 110.137 145.912 110.137C153.966 110.137 160.344 117.285 160.206 126.002C160.069 134.72 153.903 141.806 145.912 141.806Z" fill="black"/>
</svg>
