<svg width="240" height="240" viewBox="0 0 240 240" fill="none" xmlns="http://www.w3.org/2000/svg">
<path d="M123.654 41.0639C79.7793 39.32 42.8006 73.472 41.0639 117.346C39.32 161.221 73.4793 198.192 117.347 199.936C161.221 201.68 198.193 167.528 199.937 123.654C201.673 79.7792 167.521 42.8006 123.654 41.0639ZM157.21 157.522C156.222 159.266 154.296 160.138 152.422 159.877C151.848 159.797 151.273 159.608 150.736 159.302C140.229 153.322 128.777 149.427 116.7 147.727C104.623 146.027 92.5391 146.615 80.7894 149.471C78.2388 150.089 75.6738 148.526 75.0562 145.976C74.4385 143.425 76.0008 140.86 78.5513 140.243C91.471 137.104 104.754 136.457 118.022 138.324C131.291 140.192 143.876 144.472 155.437 151.048C157.712 152.349 158.511 155.241 157.217 157.522H157.21ZM167.659 136.653C166.039 139.647 162.289 140.766 159.296 139.146C147.001 132.497 133.689 128.13 119.73 126.168C105.771 124.206 91.7762 124.736 78.1226 127.737C77.3814 127.897 76.6475 127.926 75.9354 127.825C73.4576 127.476 71.3358 125.63 70.769 123.036C70.0351 119.708 72.1423 116.416 75.4703 115.682C90.5627 112.362 106.033 111.773 121.452 113.938C136.864 116.104 151.579 120.929 165.167 128.282C168.168 129.903 169.28 133.645 167.659 136.646V136.653ZM179.242 113.132C177.716 116.068 174.541 117.586 171.445 117.15C170.609 117.034 169.788 116.772 168.996 116.365C154.681 108.917 139.262 103.998 123.167 101.738C107.072 99.4784 90.8897 99.9579 75.078 103.17C70.9652 104.005 66.9614 101.346 66.1257 97.2403C65.2901 93.1275 67.9496 89.1238 72.0551 88.2881C89.5672 84.7349 107.472 84.2044 125.282 86.7041C143.092 89.2037 160.153 94.6535 176.008 102.901C179.729 104.834 181.175 109.419 179.242 113.139V113.132Z" fill="black"/>
</svg>
