<svg width="240" height="240" viewBox="0 0 240 240" fill="none" xmlns="http://www.w3.org/2000/svg">
<path d="M195.384 75.4256C193.042 58.2359 177.883 44.6769 159.89 42.0513C156.85 41.6 145.367 40 118.747 40H118.541C91.9004 40 86.1901 41.6205 83.1706 42.0513C65.6906 44.6154 49.7306 56.7795 45.8485 74.1744C43.9998 82.7487 43.7944 92.2462 44.1436 100.964C44.6366 113.456 44.7393 125.928 45.8895 138.379C46.6906 146.646 48.0668 154.851 50.0387 162.913C53.7155 177.826 68.6279 190.236 83.2322 195.282C98.8636 200.554 115.666 201.436 131.79 197.805C133.557 197.395 135.323 196.923 137.048 196.39C140.951 195.159 145.552 193.785 148.921 191.364C148.962 191.323 149.003 191.282 149.024 191.241C149.044 191.2 149.065 191.138 149.065 191.077V179.015C149.065 179.015 149.065 178.913 149.024 178.872C149.003 178.831 148.962 178.79 148.921 178.749C148.88 178.708 148.839 178.687 148.777 178.687C148.715 178.687 148.674 178.687 148.613 178.687C138.301 181.128 127.723 182.338 117.104 182.318C98.8431 182.318 93.9339 173.764 92.5166 170.195C91.3868 167.118 90.6679 163.897 90.3803 160.636C90.3803 160.574 90.3803 160.533 90.4009 160.472C90.4214 160.431 90.4625 160.369 90.5036 160.349C90.5447 160.308 90.6063 160.287 90.6474 160.287C90.709 160.287 90.7501 160.287 90.8117 160.287C100.959 162.708 111.352 163.918 121.807 163.918C124.313 163.918 126.819 163.918 129.325 163.856C139.821 163.569 150.893 163.036 161.225 161.046C161.492 161.005 161.738 160.944 161.964 160.882C178.253 157.785 193.761 148.082 195.343 123.528C195.404 122.564 195.548 113.395 195.548 112.39C195.548 108.985 196.657 88.2051 195.384 75.4256ZM170.304 136.718H153.173V95.2615C153.173 86.5436 149.496 82.0923 141.999 82.0923C133.762 82.0923 129.654 87.3641 129.654 97.7641V120.451H112.626V97.7641C112.626 87.3641 108.497 82.0923 100.26 82.0923C92.8247 82.0923 89.1068 86.5436 89.0863 95.2615V136.718H71.976V94.0103C71.976 85.2923 74.2355 78.359 78.7339 73.2103C83.3966 68.0821 89.4971 65.4564 97.0766 65.4564C105.847 65.4564 112.482 68.7795 116.898 75.4462L121.171 82.5231L125.443 75.4462C129.859 68.8 136.494 65.4564 145.244 65.4564C152.803 65.4564 158.924 68.0821 163.587 73.2103C168.106 78.3385 170.345 85.2718 170.345 94.0103V136.718H170.304Z" fill="black"/>
</svg>
