<svg width="240" height="240" viewBox="0 0 240 240" fill="none" xmlns="http://www.w3.org/2000/svg">
<path d="M164.145 85.1445L149.865 99.4229L112 61H60V113L129 181L149.645 160.355L164.145 174.855L129 210L40 121V41H120L164.145 85.1445Z" fill="black"/>
<path d="M200 120H220V140H200V160H180V140H160V120H180V100H200V120Z" fill="black"/>
<path d="M89.7598 81C95.1497 81 99.5194 85.3699 99.5195 90.7598C99.5195 96.1498 95.1498 100.52 89.7598 100.52C84.3699 100.519 80 96.1497 80 90.7598C80.0001 85.3699 84.3699 81.0001 89.7598 81Z" fill="black"/>
</svg>
