<svg width="240" height="240" viewBox="0 0 240 240" fill="none" xmlns="http://www.w3.org/2000/svg">
<path fill-rule="evenodd" clip-rule="evenodd" d="M120 100C136.57 100 150 113.43 150 130C150 146.57 136.57 160 120 160C103.43 160 90 146.57 90 130C90 113.43 103.43 100 120 100ZM120 120C114.48 120 110 124.48 110 130C110 135.52 114.48 140 120 140C125.52 140 130 135.52 130 130C130 124.48 125.52 120 120 120Z" fill="black"/>
<path fill-rule="evenodd" clip-rule="evenodd" d="M200 80V200H40V40H160L200 80ZM60 180H180V88.1426L151.857 60H120V80H90V60H60V180Z" fill="black"/>
</svg>
