<svg width="240" height="240" viewBox="0 0 240 240" fill="none" xmlns="http://www.w3.org/2000/svg">
<path d="M104.275 129.437C104.587 122.662 100.587 117.169 95.3562 117.169C90.125 117.169 85.625 122.369 85.3125 129.144C85 135.919 89.5812 138.675 94.8187 138.675C100.056 138.675 103.962 136.212 104.275 129.437Z" fill="black"/>
<path d="M120 40C75.8187 40 40 75.8187 40 120C40 142.094 48.9563 162.094 63.4313 176.569L48.1938 191.806C45.1688 194.831 47.3125 200 51.5875 200H120C164.181 200 200 164.181 200 120C200 75.8187 164.181 40 120 40ZM173.356 134.169C172.769 155.875 149.106 173.338 120.037 173.338C90.9688 173.338 67.3375 155.894 66.7188 134.206C60.3625 131.225 55.9625 124.775 55.9625 117.288C55.9625 106.969 64.325 98.6063 74.6438 98.6063C78.9438 98.6063 82.9062 100.063 86.0625 102.506C94.5625 97.2375 105.269 93.9 116.994 93.4062V93.3375C116.994 82.2563 125.413 73.1125 136.194 71.9563C137.444 65.8875 142.813 61.325 149.25 61.325C156.613 61.325 162.581 67.2938 162.581 74.6563C162.581 82.0188 156.613 87.9875 149.25 87.9875C142.944 87.9875 137.662 83.6063 136.275 77.725V77.7375C128.625 78.8188 122.725 85.4062 122.725 93.3438V93.3938C134.569 93.8375 145.394 97.175 153.969 102.481C157.119 100.056 161.063 98.6125 165.344 98.6125C175.663 98.6125 184.025 106.975 184.025 117.294C184.025 124.737 179.662 131.169 173.356 134.169Z" fill="black"/>
<path d="M138.5 144.819C132.744 144.237 126.531 143.919 120.038 143.919C113.544 143.919 107.325 144.237 101.575 144.819C100.594 144.919 99.9688 145.937 100.35 146.85C103.575 154.544 111.169 159.95 120.038 159.95C128.906 159.95 136.506 154.544 139.725 146.85C140.106 145.937 139.481 144.919 138.5 144.819Z" fill="black"/>
<path d="M144.725 117.169C139.487 117.169 135.494 122.662 135.806 129.437C136.119 136.219 140.031 138.675 145.262 138.675C150.494 138.675 155.081 135.919 154.769 129.144C154.462 122.369 149.962 117.169 144.725 117.169Z" fill="black"/>
</svg>
