<svg width="240" height="240" viewBox="0 0 240 240" fill="none" xmlns="http://www.w3.org/2000/svg">
<path d="M120 20C175.23 20 220 64.77 220 120C220 175.23 175.23 220 120 220C64.77 220 20 175.23 20 120C20 64.77 64.77 20 120 20ZM120 200C164.18 200 200 164.18 200 120C200 75.82 164.18 40 120 40C75.82 40 40 75.82 40 120C40 164.18 75.82 200 120 200Z" fill="black"/>
<rect x="98.7869" y="155.355" width="20" height="80" transform="rotate(-135 98.7869 155.355)" fill="black"/>
<rect x="84.6448" y="98.7868" width="20" height="80" transform="rotate(-45 84.6448 98.7868)" fill="black"/>
</svg>
