<svg width="240" height="240" viewBox="0 0 240 240" fill="none" xmlns="http://www.w3.org/2000/svg">
<path fill-rule="evenodd" clip-rule="evenodd" d="M65.8075 64.4105C64.3272 55.8305 62.1548 50.4351 59.7485 50.4249H59.7439C55.2568 50.4403 51.6196 69.1514 51.6196 92.253C51.6196 115.355 55.262 134.081 59.7537 134.081C61.5953 134.081 63.2946 130.901 64.6626 125.573C66.8246 145.078 71.3111 158.486 76.5052 158.486C80.5238 158.486 84.1304 150.432 86.5517 137.73C88.2049 161.887 92.3659 179.027 97.2292 179.027C100.282 179.027 103.064 172.235 105.124 161.176C107.601 184.005 113.324 200 119.998 200C126.672 200 132.406 184.01 134.872 161.176C136.918 172.235 139.7 179.027 142.767 179.027C147.631 179.027 151.782 161.887 153.445 137.73C155.866 150.432 159.463 158.486 163.492 158.486C168.68 158.486 173.172 145.083 175.334 125.573C176.692 130.917 178.401 134.081 180.243 134.081C184.735 134.081 188.377 115.355 188.377 92.253C188.377 69.1514 184.735 50.4249 180.243 50.4249C177.832 50.4249 175.675 55.8356 174.179 64.4105C171.783 49.6158 167.892 40 163.492 40C158.267 40 153.74 53.5992 151.598 73.3461C149.503 58.9739 146.323 49.8116 142.762 49.8116C137.772 49.8116 133.53 67.8322 131.958 92.9693C129.002 80.0812 124.724 71.9959 119.988 71.9959C115.252 71.9959 110.974 80.0864 108.024 92.9693C106.447 67.8322 102.21 49.8116 97.2189 49.8116C93.6635 49.8116 90.4891 58.9739 88.383 73.3461C86.2463 53.5992 81.7189 40 76.4948 40C72.1097 40 68.2035 49.621 65.8075 64.4105ZM200 88.1389C200 77.812 197.935 69.4382 195.386 69.4382C192.838 69.4382 190.772 77.812 190.772 88.1389C190.772 98.4656 192.838 106.84 195.386 106.84C197.935 106.84 200 98.4656 200 88.1389ZM49.2277 88.1389C49.2277 77.812 47.1625 69.4382 44.6139 69.4382C42.0658 69.4382 40 77.812 40 88.1389C40 98.4656 42.0658 106.84 44.6139 106.84C47.1625 106.84 49.2277 98.4656 49.2277 88.1389Z" fill="black"/>
</svg>
