<svg width="240" height="240" viewBox="0 0 240 240" fill="none" xmlns="http://www.w3.org/2000/svg">
<path d="M198.31 103.758L198.082 103.176L176.032 45.6296C175.583 44.5017 174.788 43.5449 173.762 42.8965C172.736 42.2591 171.538 41.9521 170.331 42.017C169.124 42.0818 167.967 42.5154 167.014 43.2592C166.072 44.0243 165.389 45.0611 165.057 46.2285L150.168 91.78H89.88L74.9914 46.2285C74.6685 45.0548 73.9837 44.0128 73.0344 43.2508C72.0819 42.507 70.924 42.0734 69.7172 42.0085C68.5104 41.9436 67.3128 42.2506 66.286 42.888C65.2622 43.5391 64.4685 44.495 64.0169 45.6211L41.9244 103.143L41.7051 103.725C38.5308 112.018 38.139 121.119 40.5887 129.655C43.0384 138.191 48.1968 145.699 55.2862 151.048L55.3621 151.107L55.5645 151.25L89.1546 176.405L105.772 188.982L115.895 196.624C117.079 197.523 118.525 198.01 120.012 198.01C121.498 198.01 122.944 197.523 124.128 196.624L134.251 188.982L150.868 176.405L184.661 151.098L184.745 151.031C191.819 145.682 196.965 138.181 199.411 129.657C201.857 121.132 201.471 112.044 198.31 103.758Z" fill="black"/>
</svg>
