<svg width="240" height="240" viewBox="0 0 240 240" fill="none" xmlns="http://www.w3.org/2000/svg">
<path fill-rule="evenodd" clip-rule="evenodd" d="M150 180C150 196.57 136.57 210 120 210C103.43 210 90 196.57 90 180H40V160H60V100C60 70.2701 81.6229 45.5909 110 40.8301V30H130V40.8301C158.377 45.5909 180 70.2701 180 100V160H200V180H150ZM110 180C110 185.52 114.48 190 120 190C125.52 190 130 185.52 130 180H110ZM120 60C97.9086 60 80 77.9086 80 100V160H160V100C160 77.9086 142.091 60 120 60Z" fill="black"/>
</svg>
