<svg width="240" height="240" viewBox="0 0 240 240" fill="none" xmlns="http://www.w3.org/2000/svg">
<path fill-rule="evenodd" clip-rule="evenodd" d="M194 195L180 210L149.996 180.28C149.846 196.721 136.476 210 120 210C103.43 210 90 196.57 90 180H40V160H60V90L30 60L44 46L194 195ZM110 180C110 185.52 114.48 190 120 190C125.52 190 130 185.52 130 180H110ZM80 160H129.716L80 110.284V160Z" fill="black"/>
<path d="M130 40.8301C158.377 45.5909 180 70.2701 180 100V153.716L160 133.716V100C160 77.9086 142.091 60 120 60C110.555 60 101.876 63.2743 95.0332 68.749L80.834 54.5498C88.9515 47.5472 98.964 42.6816 110 40.8301V30H130V40.8301Z" fill="black"/>
</svg>
