<svg width="240" height="240" viewBox="0 0 240 240" fill="none" xmlns="http://www.w3.org/2000/svg">
<path fill-rule="evenodd" clip-rule="evenodd" d="M119.64 63.7002C119.789 63.7002 170.095 63.7051 182.648 67.0723C189.592 68.931 195.049 74.3877 196.907 81.3311C200.266 93.9037 200.279 120.15 200.279 120.15C200.279 120.207 200.276 146.41 196.907 158.97C195.049 165.913 189.592 171.37 182.648 173.229C170.095 176.596 119.789 176.601 119.64 176.601C119.64 176.601 69.2037 176.601 56.6309 173.229C49.6875 171.37 44.2307 165.913 42.3721 158.97C39.0037 146.411 39 120.207 39 120.15C39 120.15 39 93.9037 42.3721 81.3311C44.2307 74.3876 49.6875 68.9309 56.6309 67.0723C69.2035 63.7001 119.64 63.7002 119.64 63.7002ZM103.496 144.342L145.396 120.152L103.496 95.9639V144.342Z" fill="black"/>
</svg>
