<svg width="240" height="240" viewBox="0 0 240 240" fill="none" xmlns="http://www.w3.org/2000/svg">
<path d="M205.818 205.818L191.677 219.961L147.031 175.315C141.602 177.264 135.901 178.644 130 179.38V200H160V220H80V200H110V179.38C70.537 174.459 40 140.796 40 100H60C60 133.137 86.8629 160 120 160C123.671 160 127.264 159.668 130.753 159.037L20.0391 48.3232L34.1807 34.1816L205.818 205.818Z" fill="black"/>
<path d="M200 100C200 119.983 192.672 138.253 180.558 152.273L166.364 138.08C174.883 127.721 180 114.459 180 100H200Z" fill="black"/>
<path d="M120 20C142.091 20 160 37.9086 160 60V100C160 108.933 157.071 117.18 152.122 123.838L137.665 109.381C139.154 106.583 140 103.391 140 100V60C140 48.9543 131.046 40 120 40C108.954 40 100 48.9543 100 60V71.7158L80.7178 52.4336C84.2548 33.9604 100.496 20 120 20Z" fill="black"/>
</svg>
