<svg width="240" height="240" viewBox="0 0 240 240" fill="none" xmlns="http://www.w3.org/2000/svg">
<path d="M60 100C60 133.137 86.8629 160 120 160C153.137 160 180 133.137 180 100H200C200 140.796 169.463 174.459 130 179.38V200H160V220H80V200H110V179.38C70.537 174.459 40 140.796 40 100H60Z" fill="black"/>
<path fill-rule="evenodd" clip-rule="evenodd" d="M120 20C142.091 20 160 37.9086 160 60V100C160 122.091 142.091 140 120 140C97.9086 140 80 122.091 80 100V60C80 37.9086 97.9086 20 120 20ZM120 40C108.954 40 100 48.9543 100 60V100C100 111.046 108.954 120 120 120C131.046 120 140 111.046 140 100V60C140 48.9543 131.046 40 120 40Z" fill="black"/>
</svg>
