<svg width="240" height="240" viewBox="0 0 240 240" fill="none" xmlns="http://www.w3.org/2000/svg">
<path fill-rule="evenodd" clip-rule="evenodd" d="M120 60C146.339 60 168.713 76.9715 176.785 100.575C195.645 103.798 210 120.222 210 140C210 162.091 192.091 180 170 180H70C47.9086 180 30 162.091 30 140C30 120.222 44.3547 103.798 63.2139 100.575C71.286 76.9713 93.6612 60 120 60ZM120 80C104.175 80 90.4965 89.1901 84.0098 102.524C99.1909 108.202 110 122.838 110 140H90C90 132.636 86.0197 126.203 80.0938 122.731C77.1308 120.996 73.6819 120 70 120C67.0976 120 64.3398 120.619 61.8506 121.73C61.7743 121.765 61.6988 121.8 61.623 121.835C61.1383 122.059 60.664 122.301 60.2012 122.562C54.1126 125.99 50 132.515 50 140C50 151.046 58.9543 160 70 160H170C181.046 160 190 151.046 190 140C190 128.954 181.046 120 170 120C166.318 120 162.868 120.996 159.905 122.731C159.966 121.829 160 120.918 160 120C160 97.9086 142.091 80 120 80Z" fill="black"/>
</svg>
