<svg width="240" height="240" viewBox="0 0 240 240" fill="none" xmlns="http://www.w3.org/2000/svg">
<path d="M45.1854 50.0005C44.441 49.9906 43.7033 50.1414 43.0227 50.4424C42.3422 50.7435 41.7349 51.1877 41.2425 51.7447C40.7556 52.2956 40.3974 52.9475 40.1938 53.6533C39.9902 54.3591 39.9464 55.1012 40.0654 55.826L61.8255 185.299C62.3855 188.571 65.2541 190.976 68.637 190.999H173.038C174.257 191.023 175.444 190.61 176.385 189.837C177.327 189.063 177.959 187.979 178.169 186.781L199.929 55.8602C200.053 55.1379 200.014 54.3973 199.817 53.6916C199.619 52.986 199.267 52.3327 198.786 51.7789C198.301 51.2201 197.701 50.772 197.026 50.4651C196.352 50.1583 195.619 49.9998 194.878 50.0005H45.1854ZM136.82 143.574H103.506L94.4771 97.4028H144.9L136.82 143.574Z" fill="black"/>
</svg>
