<svg width="240" height="240" viewBox="0 0 240 240" fill="none" xmlns="http://www.w3.org/2000/svg">
<path fill-rule="evenodd" clip-rule="evenodd" d="M83.0026 98.0751C75.7769 93.4098 71 85.3327 71 76.1499C71 61.7077 82.8159 50 97.3914 50H142.609C157.184 50 169 61.7077 169 76.1499C169 85.3327 164.223 93.4098 156.997 98.0751C164.223 102.74 169 110.818 169 120C169 134.442 157.184 146.15 142.609 146.15H142.127C135.238 146.15 128.964 143.534 124.264 139.25V163.612C124.264 178.215 112.19 190 97.5111 190C82.9654 190 71 178.322 71 163.85C71 154.668 75.7767 146.59 83.0022 141.925C75.7767 137.26 71 129.183 71 120C71 110.818 75.7769 102.74 83.0026 98.0751ZM124.264 120C124.264 129.776 132.262 137.7 142.127 137.7H142.609C152.474 137.7 160.472 129.776 160.472 120C160.472 110.225 152.474 102.3 142.609 102.3H142.127C132.262 102.3 124.264 110.225 124.264 120ZM115.736 102.3H97.3914C87.5257 102.3 79.528 110.225 79.528 120C79.528 129.756 87.4934 137.668 97.3314 137.7H97.3594H115.736V102.3ZM97.3914 146.15C97.3714 146.15 97.3514 146.15 97.3314 146.15C87.4934 146.182 79.528 154.094 79.528 163.85C79.528 173.596 87.6154 181.55 97.5111 181.55C107.54 181.55 115.736 173.489 115.736 163.612V146.15H97.3914ZM115.736 93.8499H97.3914C87.5257 93.8499 79.528 85.9254 79.528 76.1499C79.528 66.3744 87.5257 58.4499 97.3914 58.4499H115.736V93.8499ZM142.609 93.8499H124.264V58.4499H142.609C152.474 58.4499 160.472 66.3744 160.472 76.1499C160.472 85.9254 152.474 93.8499 142.609 93.8499Z" fill="black"/>
</svg>
