<?xml version="1.0" standalone="no"?>
<!DOCTYPE svg PUBLIC "-//W3C//DTD SVG 1.1//EN" "http://www.w3.org/Graphics/SVG/1.1/DTD/svg11.dtd" >
<svg xmlns="http://www.w3.org/2000/svg">
<metadata>Generated by IcoMoon</metadata>
<defs>
<font id="icomoon" horiz-adv-x="1024">
<font-face units-per-em="1024" ascent="960" descent="-64" />
<missing-glyph horiz-adv-x="1024" />
<glyph unicode="&#x20;" horiz-adv-x="512" d="" />
<glyph unicode="&#xe900;" glyph-name="ico__addbook" d="M768 277.333h85.333v-256h-85.333v256zM682.667 106.667v85.333h256v-85.333h-256zM85.333 192h512v-85.333h-512v85.333zM85.333 874.837h597.333v-85.333h-597.333v85.333zM597.333 874.837h85.333v-597.504h-85.333v597.504zM85.333 874.837h85.333v-768.171h-85.333v768.171zM256 874.837h85.333v-768.171h-85.333v768.171z" />
<glyph unicode="&#xe901;" glyph-name="ico__arrow_down_left" d="M316.287 191.362l-60.34 60.34 452.548 452.548 60.34-60.34-452.548-452.548zM768.384 276.48v-85.333h-511.36v85.333h511.36zM255.573 703.787h85.333v-511.189h-85.333v511.189z" />
<glyph unicode="&#xe902;" glyph-name="ico__arrow_down_right" d="M768.525 251.755l-60.34-60.34-452.548 452.548 60.34 60.34 452.548-452.548zM683.435 703.872h85.333v-511.36h-85.333v511.36zM256.085 191.061v85.333h511.189v-85.333h-511.189z" />
<glyph unicode="&#xe903;" glyph-name="ico__arrow_down" d="M896.469 447.104l-60.373 60.331-281.899-281.899v563.797h-85.333v-563.115l-280.96 281.003-60.373-60.373 383.317-383.275 1.024 1.024 1.067-1.024 383.531 383.531z" />
<glyph unicode="&#xe904;" glyph-name="ico__arrow_left" d="M874.923 491.136v-85.333h-640v85.333h640zM592.974 123.878l-60.34-60.34-383.52 383.52 60.34 60.34 383.52-383.52zM532.405 832.438l60.34-60.34-383.308-383.308-60.34 60.34 383.308 383.308z" />
<glyph unicode="&#xe905;" glyph-name="ico__arrow_right" d="M874.88 448.939l-383.531 383.531-60.331-60.373 281.899-281.899h-563.797v-85.333h563.115l-281.003-280.96 60.331-60.373 383.317 383.317-1.024 1.024 1.024 1.067z" />
<glyph unicode="&#xe906;" glyph-name="ico__arrow_top_left" d="M255.851 643.999l60.34 60.34 452.548-452.548-60.34-60.34-452.548 452.548zM340.992 191.915h-85.333v511.36h85.333v-511.36zM768.299 704.768v-85.333h-511.189v85.333h511.189z" />
<glyph unicode="&#xe907;" glyph-name="ico__arrow_top_right" d="M767.36 703.189v1.493h-511.36v-85.333h367.019l-367.445-367.445 60.331-60.331 367.573 367.573v-367.147h85.333v511.189h-1.451z" />
<glyph unicode="&#xe908;" glyph-name="ico__arrow_top" d="M555.093 63.531h-85.333v640h85.333v-640zM187.858 345.452l-60.34 60.34 383.52 383.52 60.34-60.34-383.52-383.52zM896.465 406.006l-60.34-60.34-383.308 383.308 60.34 60.34 383.308-383.308z" />
<glyph unicode="&#xe909;" glyph-name="ico__book" d="M938.667 789.333h-853.333v-682.667h853.333v682.667zM170.667 704h298.667v-512h-298.667v512zM853.333 192h-298.667v512h298.667v-512zM597.333 618.667h213.333v-85.333h-213.333v85.333zM597.333 490.667h213.333v-85.333h-213.333v85.333zM597.333 362.667h213.333v-85.333h-213.333v85.333z" />
<glyph unicode="&#xe90a;" glyph-name="ico__bug" d="M597.333 234.667h85.333v-85.333h-85.333v85.333zM853.333 405.333h85.333v-170.667h-85.333v170.667zM85.333 405.333h85.333v-170.667h-85.333v170.667zM341.333 234.667h85.333v-85.333h-85.333v85.333zM682.667 576h-341.333v85.333h-85.333v-170.667h-85.333v-85.333h85.333v-170.667h85.333v85.333h341.333v-85.333h85.333v170.667h85.333v85.333h-85.333v170.667h-85.333v-85.333zM341.333 405.333v85.333h85.333v-85.333h-85.333zM682.667 405.333h-85.333v85.333h85.333v-85.333zM768 746.667h85.333v-85.333h-85.333v85.333zM853.333 661.333h85.333v-85.333h-85.333v85.333zM170.667 746.667h85.333v-85.333h-85.333v85.333zM85.333 661.333h85.333v-85.333h-85.333v85.333z" />
<glyph unicode="&#xe90b;" glyph-name="ico__cart" d="M721.067 704c-19.755 97.365-105.856 170.667-209.067 170.667s-189.269-73.301-209.067-170.667h-132.267v-682.667h682.667v682.667h-132.267zM512 789.333c55.723 0 103.125-35.627 120.704-85.333h-241.365c17.579 49.707 64.981 85.333 120.704 85.333zM768 106.667h-512v512h512v-512z" />
<glyph unicode="&#xe90c;" glyph-name="ico__close" d="M938.667 814.293l-60.373 60.373-366.293-366.336-366.293 366.336-60.373-60.373 366.336-366.293-366.336-366.293 60.373-60.373 366.293 366.336 366.293-366.336 60.373 60.373-366.336 366.293 366.336 366.293z" />
<glyph unicode="&#xe90d;" glyph-name="ico__collapse" d="M640 576v170.667h-85.333v-256h256v85.333h-170.667zM469.333 405.333h-256v-85.333h170.667v-170.667h85.333v256z" />
<glyph unicode="&#xe90e;" glyph-name="ico__darkmode" d="M838.272 548.565c-14.891-33.024-39.979-60.416-71.296-78.251-24.875-14.165-53.632-22.315-84.309-22.315-94.251 0-170.667 76.416-170.667 170.667 0 30.677 8.149 59.435 22.315 84.309 17.835 31.275 45.227 56.363 78.251 71.296-31.787 9.771-65.536 15.061-100.565 15.061-6.955 0-13.824-0.256-20.693-0.683-178.859-10.709-320.64-159.104-320.64-340.651s152.832-341.333 341.333-341.333 329.941 141.781 340.651 320.64c0.427 6.869 0.683 13.739 0.683 20.693 0 34.987-5.291 68.779-15.061 100.565zM512 192c-141.397 0-256 114.603-256 256 0 115.541 76.544 213.163 181.675 244.992-7.125-23.509-11.008-48.469-11.008-74.325 0-141.397 114.603-256 256-256 25.856 0 50.816 3.883 74.325 11.008-31.872-105.131-129.493-181.675-244.992-181.675z" />
<glyph unicode="&#xe90f;" glyph-name="ico__delete" d="M384 533.333h85.333v-340.779h-85.333v340.779zM554.667 532.779h85.333v-340.779h-85.333v340.779zM938.667 704h-217.6c-19.755 97.365-105.856 170.667-209.067 170.667s-189.269-73.301-209.067-170.667h-217.6v-85.333h128v-597.333h597.333v597.333h128v85.333zM512 789.333c55.723 0 103.125-35.627 120.704-85.333h-241.365c17.579 49.707 64.981 85.333 120.704 85.333zM725.333 106.667h-426.667v512h426.667v-512z" />
<glyph unicode="&#xe910;" glyph-name="ico__down" d="M451.669 252.331l60.331-60.331 426.667 426.667-60.373 60.331-366.293-366.336-366.293 366.336-60.373-60.331 366.336-366.336z" />
<glyph unicode="&#xe911;" glyph-name="ico__download" d="M554.624 874.667v-468.48h-85.333v468.48h85.333zM725.292 540.689l-213.331-213.331-60.34 60.34 213.331 213.331 60.34-60.34zM359.024 600.96l213.271-213.271-60.34-60.34-213.271 213.271 60.34 60.34zM85.333 21.333v85.333h853.333v-85.333h-853.333zM85.333 21.333v255.957h85.333v-255.957h-85.333zM853.333 21.333v255.957h85.333v-255.957h-85.333z" />
<glyph unicode="&#xe912;" glyph-name="ico__edit" d="M85.589 277.589h85.333v-256h-85.333v256zM85.589 106.923h255.659v-85.333h-255.659v85.333zM512 106.923h426.667v-85.333h-426.667v85.333zM878.677 558.677l60.373 60.331-256.683 256.512-597.674-597.717 60.331-60.331 537.429 537.429 135.893-135.893-537.429-537.429 60.331-60.331 537.429 537.429z" />
<glyph unicode="&#xe913;" glyph-name="ico__expand" d="M768 704v0h-256v-85.333h170.667v-170.667h85.333v256zM341.333 448h-85.333v-256h256v85.333h-170.667v170.667z" />
<glyph unicode="&#xe914;" glyph-name="ico__eye" d="M512 704c-235.648 0-426.667-256-426.667-256s191.019-256 426.667-256 426.667 256 426.667 256c0 0-191.019 256-426.667 256zM756.437 383.36c-58.965-48.384-149.248-106.027-244.395-106.027s-185.429 57.643-244.395 106.027c-27.477 22.528-50.987 45.312-69.419 64.64 18.432 19.328 41.941 42.112 69.419 64.64 58.965 48.384 149.248 106.027 244.395 106.027s185.429-57.643 244.395-106.027c27.477-22.528 50.987-45.312 69.419-64.64-18.432-19.328-41.941-42.112-69.419-64.64zM511.701 575.701c-70.699 0-128-57.301-128-128s57.301-128 128-128 128 57.301 128 128-57.301 128-128 128zM511.701 405.035c-23.552 0-42.667 19.115-42.667 42.667s19.115 42.667 42.667 42.667 42.667-19.115 42.667-42.667-19.115-42.667-42.667-42.667z" />
<glyph unicode="&#xe915;" glyph-name="ico__favorite" d="M678.101 796.843c-64.896 0-123.648-26.325-166.101-68.907-42.496 42.581-101.205 68.907-166.101 68.907-208.811 0.597-312.533-256.128-165.76-400.768l-0.171-0.171 331.861-331.861 331.861 331.861c147.072 144.683 43.307 401.579-165.547 400.981zM827.435 562.176c0-41.429-16.853-78.891-44.117-105.941v0c-84.523-84.565-186.752-186.752-271.36-271.36-84.651 84.651-186.923 186.923-271.531 271.531v0c-93.483 92.075-27.52 255.488 105.429 255.104 82.304 0.64 149.888-68.48 149.333-149.333h33.579c-0.085 39.424 16.043 77.867 43.392 105.216 91.947 93.739 255.701 27.776 255.275-105.216z" />
<glyph unicode="&#xe916;" glyph-name="ico__filter" d="M938.667 277.333h-135.296c-17.579 49.707-64.981 85.333-120.704 85.333s-103.125-35.627-120.704-85.333h-476.629v-85.333h476.629c17.579-49.707 64.981-85.333 120.704-85.333s103.125 35.627 120.704 85.333h135.296v85.333zM682.667 192c-23.552 0-42.667 19.115-42.667 42.667s19.115 42.667 42.667 42.667 42.667-19.115 42.667-42.667-19.115-42.667-42.667-42.667zM85.333 618.667h135.296c17.579-49.707 64.981-85.333 120.704-85.333s103.125 35.627 120.704 85.333h476.629v85.333h-476.629c-17.579 49.707-64.981 85.333-120.704 85.333s-103.125-35.627-120.704-85.333h-135.296v-85.333zM341.333 704c23.552 0 42.667-19.115 42.667-42.667s-19.115-42.667-42.667-42.667-42.667 19.115-42.667 42.667 19.115 42.667 42.667 42.667z" />
<glyph unicode="&#xe917;" glyph-name="ico__help" d="M576 128c0-35.346-28.654-64-64-64s-64 28.654-64 64c0 35.346 28.654 64 64 64s64-28.654 64-64zM469.333 448h85.333v-170.667h-85.333v170.667zM512 362.667c141.397 0 256 114.603 256 256s-114.603 256-256 256-256-114.603-256-256h85.333c0 94.251 76.416 170.667 170.667 170.667s170.667-76.416 170.667-170.667-76.416-170.667-170.667-170.667v-85.333z" />
<glyph unicode="&#xe918;" glyph-name="ico__hide" d="M756.395 512.64c27.477-22.528 50.987-45.312 69.419-64.64-18.347-19.2-41.728-41.856-68.992-64.256l60.587-60.587c75.008 62.933 121.216 124.843 121.216 124.843s-191.019 256-426.667 256c-23.253 0-46.123-2.517-68.352-7.040l78.549-78.549c91.392-3.883 177.365-59.136 234.24-105.813zM748.587 271.744l-492.416 492.416-72.832-72.832 77.141-77.141c-106.155-73.771-175.147-166.187-175.147-166.187s191.019-256 426.667-256c49.579 0 97.152 11.349 141.397 29.269l101.931-101.931 72.832 72.832-79.573 79.573zM512 277.333c-95.189 0-185.429 57.643-244.395 106.027-27.477 22.528-50.987 45.312-69.419 64.64 18.432 19.328 41.941 42.112 69.419 64.64 16 13.099 34.304 26.923 54.4 40.064l67.584-67.584c-3.627-11.819-5.547-24.363-5.547-37.376 0-70.699 57.301-128 128-128 13.013 0 25.557 1.963 37.376 5.547l36.949-36.949c-24.107-6.869-49.024-11.008-74.325-11.008z" />
<glyph unicode="&#xe919;" glyph-name="ico__info--alt" d="M512 832c-212.096 0-384-171.904-384-384s171.904-384 384-384 384 171.904 384 384-171.904 384-384 384zM554.667 234.667h-85.333v256h85.333v-256zM512 576c-23.552 0-42.667 19.115-42.667 42.667s19.115 42.667 42.667 42.667 42.667-19.115 42.667-42.667-19.115-42.667-42.667-42.667z" />
<glyph unicode="&#xe91a;" glyph-name="ico__info" d="M512 874.667c-235.648 0-426.667-191.019-426.667-426.667s191.019-426.667 426.667-426.667 426.667 191.019 426.667 426.667-191.019 426.667-426.667 426.667zM512 106.667c-188.501 0-341.333 152.832-341.333 341.333s152.832 341.333 341.333 341.333 341.333-152.832 341.333-341.333-152.832-341.333-341.333-341.333zM554.667 618.667c0-23.564-19.103-42.667-42.667-42.667s-42.667 19.103-42.667 42.667c0 23.564 19.103 42.667 42.667 42.667s42.667-19.103 42.667-42.667zM469.333 490.667h85.333v-256h-85.333v256z" />
<glyph unicode="&#xe91b;" glyph-name="ico__left" d="M328.832 508.331l-60.331-60.331 426.667-426.667 60.331 60.373-366.293 366.293 366.293 366.293-60.331 60.373-366.336-366.336z" />
<glyph unicode="&#xe91c;" glyph-name="ico__less" d="M85.333 490.667h853.333v-85.333h-853.333v85.333z" />
<glyph unicode="&#xe91d;" glyph-name="ico__lightmode" d="M512 661.333c-117.803 0-213.333-95.531-213.333-213.333s95.531-213.333 213.333-213.333 213.333 95.531 213.333 213.333-95.531 213.333-213.333 213.333zM512 320c-70.699 0-128 57.301-128 128s57.301 128 128 128 128-57.301 128-128-57.301-128-128-128zM469.333 874.667h85.333v-128h-85.333v128zM180.155 719.512l60.34 60.34 90.51-90.51-60.34-60.34-90.51 90.51zM85.333 405.333v85.333h128v-85.333h-128zM240.464 116.13l-60.34 60.34 90.51 90.51 60.34-60.34-90.51-90.51zM554.667 21.333h-85.333v128h85.333v-128zM843.895 176.488l-60.34-60.34-90.51 90.51 60.34 60.34 90.51-90.51zM938.667 490.667v-85.333h-128v85.333h128zM783.487 779.87l60.34-60.34-90.51-90.51-60.34 60.34 90.51 90.51z" />
<glyph unicode="&#xe91e;" glyph-name="ico__logout" d="M85.333 874.667h85.333v-853.333h-85.333v853.333zM85.376 874.667h426.624v-85.333h-426.624v85.333zM512 490.667h341.333v-85.333h-341.333v85.333zM725.333 661.348l213.331-213.331-60.34-60.34-213.331 213.331 60.34 60.34zM665.048 295.058l213.271 213.271 60.34-60.34-213.271-213.271-60.34 60.34zM85.376 106.667h426.624v-85.333h-426.624v85.333z" />
<glyph unicode="&#xe91f;" glyph-name="ico__menu" d="M128 490.667h810.667v-85.333h-810.667v85.333zM128 704h810.667v-85.333h-810.667v85.333zM128 277.333h810.667v-85.333h-810.667v85.333z" />
<glyph unicode="&#xe920;" glyph-name="ico__more_vert" d="M576 448c0-35.346-28.654-64-64-64s-64 28.654-64 64c0 35.346 28.654 64 64 64s64-28.654 64-64zM576 640c0-35.346-28.654-64-64-64s-64 28.654-64 64c0 35.346 28.654 64 64 64s64-28.654 64-64zM576 256c0-35.346-28.654-64-64-64s-64 28.654-64 64c0 35.346 28.654 64 64 64s64-28.654 64-64z" />
<glyph unicode="&#xe921;" glyph-name="ico__more" d="M85.333 490.667h853.333v-85.333h-853.333v85.333zM469.333 21.333v853.333h85.333v-853.333h-85.333z" />
<glyph unicode="&#xe922;" glyph-name="ico__news" d="M426.667 661.333h341.333v-85.333h-341.333v85.333zM256 661.333h85.333v-256h-85.333v256zM426.667 490.667h341.333v-85.333h-341.333v85.333zM426.667 320h341.333v-85.333h-341.333v85.333zM256 320h85.333v-85.333h-85.333v85.333zM938.667 832h-853.333v-768h853.333v768zM170.667 746.667h682.667v-597.333h-682.667v597.333z" />
<glyph unicode="&#xe923;" glyph-name="ico__right" d="M707.669 387.669l60.331 60.331-426.667 426.667-60.331-60.373 366.336-366.293-366.336-366.293 60.331-60.373 366.336 366.336z" />
<glyph unicode="&#xe924;" glyph-name="ico__rs_behance" d="M445.611 470.229c37.675 18.005 57.344 45.269 57.344 87.723 0 83.669-62.336 104.064-134.272 104.064h-198.059v-420.011h203.605c76.331 0 148.011 36.608 148.011 121.941 0 52.736-25.003 91.733-76.672 106.325v0zM262.997 590.293h86.656c33.323 0 63.275-9.344 63.275-48 0-35.669-23.339-50.005-56.277-50.005h-93.611s0 98.005 0 98.005zM361.728 313.301h-98.731v115.669h100.608c40.661 0 66.389-16.939 66.389-59.989s-30.677-55.723-68.267-55.723v0zM786.603 598.571h-170.325v41.344h170.325v-41.344zM853.333 389.632c0 89.941-52.608 164.992-148.011 164.992s-155.605-69.675-155.605-160.939 59.605-159.659 155.605-159.659c72.661 0 119.723 32.725 142.336 102.272h-73.728c-7.936-25.941-40.661-39.723-66.005-39.723-48.939 0-74.667 28.672-74.667 77.397h219.392c0.341 4.992 0.725 10.325 0.725 15.659zM633.344 426.624c2.731 39.936 29.269 64.939 69.333 64.939s63.061-24.661 66.603-64.939h-135.936z" />
<glyph unicode="&#xe925;" glyph-name="ico__rs_github" d="M512 789.333c-193.365 0-349.952-156.629-349.952-349.952 0-154.88 100.181-285.653 239.275-332.032 17.493-3.072 24.064 7.424 24.064 16.64 0 8.32-0.427 35.883-0.427 65.195-87.936-16.171-110.677 21.419-117.675 41.131-3.925 10.069-20.992 41.131-35.883 49.451-12.245 6.571-29.739 22.741-0.427 23.168 27.563 0.427 47.232-25.387 53.803-35.883 31.488-52.949 81.792-38.059 101.931-28.885 3.072 22.741 12.245 38.059 22.315 46.805-77.867 8.747-159.232 38.955-159.232 172.8 0 38.059 13.568 69.547 35.883 94.037-3.499 8.747-15.744 44.629 3.499 92.757 0 0 29.312 9.173 96.256-35.883 27.989 7.893 57.728 11.819 87.509 11.819s59.477-3.925 87.509-11.819c66.944 45.483 96.256 35.883 96.256 35.883 19.243-48.128 6.997-84.011 3.499-92.757 22.315-24.491 35.883-55.552 35.883-94.037 0-134.315-81.792-164.053-159.659-172.8 12.672-10.923 23.637-31.915 23.637-64.725 0-46.805-0.427-84.437-0.427-96.256 0-9.173 6.571-20.139 24.064-16.64 138.24 46.379 238.421 177.621 238.421 332.032 0 193.365-156.629 349.952-349.952 349.952z" />
<glyph unicode="&#xe926;" glyph-name="ico__rs_instagram" d="M512 657.493c-115.627 0-209.493-93.867-209.493-209.493s93.867-209.493 209.493-209.493 209.493 93.867 209.493 209.493-93.867 209.493-209.493 209.493zM512 308.48c-77.227 0-139.52 62.293-139.52 139.52s62.293 139.52 139.52 139.52 139.52-62.293 139.52-139.52-62.72-139.52-139.52-139.52zM756.48 657.493c0-19.323-15.664-34.987-34.987-34.987s-34.987 15.664-34.987 34.987c0 19.323 15.664 34.987 34.987 34.987s34.987-15.664 34.987-34.987zM872.96 717.653c-20.053 39.253-52.053 71.68-91.733 91.733-44.8 22.613-103.253 22.613-220.587 22.613h-97.707c-117.333 0-175.787 0-220.587-22.613-39.253-20.053-71.68-52.053-91.733-91.733-22.613-44.8-22.613-103.253-22.613-220.587v-97.707c0-117.333 0-175.787 22.613-220.587 20.053-39.253 52.053-71.68 91.733-91.733 44.8-22.613 103.253-22.613 220.587-22.613h97.707c117.333 0 175.787 0 220.587 22.613 39.253 20.053 71.68 52.053 91.733 91.733 22.613 44.8 22.613 103.253 22.613 220.587v97.707c0 117.333 0 175.787-22.613 220.587zM826.027 399.36c0-59.733 0-100.267-2.56-131.84-2.56-30.72-7.253-46.080-12.8-57.173-13.227-26.453-34.56-47.787-61.013-61.013-11.093-5.547-26.453-10.24-57.173-12.8-31.573-2.56-72.107-2.56-131.84-2.56h-97.707c-59.733 0-100.267 0-131.84 2.56-30.72 2.56-46.080 6.827-57.173 12.8-26.453 13.227-47.787 34.56-61.013 61.013-5.547 11.093-10.24 26.453-12.8 57.173-2.56 31.573-2.56 72.107-2.56 131.84v97.707c0 59.733 0 100.267 2.56 131.84 2.56 30.72 7.253 46.080 12.8 57.173 13.227 26.453 34.56 47.787 61.013 61.013 11.093 5.547 26.453 10.24 57.173 12.373 31.573 2.56 72.107 2.56 131.84 2.56h97.707c59.733 0 100.267 0 131.84-2.56 30.72-2.56 46.080-7.253 57.173-12.8 26.453-13.227 47.787-34.56 61.013-61.013 5.547-11.093 10.24-26.453 12.8-57.173 2.56-31.573 2.56-72.107 2.56-131.84v-97.707z" />
<glyph unicode="&#xe927;" glyph-name="ico__rs_linkedin" d="M187.691 106.667h128v473.6h-128v-473.6zM251.691 789.333c-42.667 0-76.8-34.133-76.8-76.8s34.133-76.8 76.8-76.8 76.8 34.133 76.8 76.8-34.133 76.8-76.8 76.8zM533.291 507.733v72.533h-128v-473.6h128v243.2c0 136.533 174.933 145.067 174.933 0v-243.2h128v290.133c0 230.4-243.2 221.867-302.933 110.933z" />
<glyph unicode="&#xe928;" glyph-name="ico__rs_threads" d="M695.765 476.032c-3.328 1.579-6.656 3.115-10.069 4.565-5.931 109.227-65.621 171.776-165.845 172.416-0.469 0-0.896 0-1.365 0-59.947 0-109.781-25.6-140.459-72.149l55.125-37.803c22.912 34.773 58.88 42.197 85.376 42.197 0.299 0 0.597 0 0.896 0 32.981-0.213 57.899-9.813 74.027-28.501 11.733-13.611 19.584-32.427 23.467-56.192-29.269 4.992-60.885 6.485-94.72 4.565-95.275-5.504-156.544-61.056-152.405-138.283 2.091-39.168 21.589-72.875 54.955-94.891 28.203-18.603 64.512-27.691 102.229-25.643 49.835 2.731 88.917 21.76 116.181 56.491 20.693 26.411 33.792 60.629 39.595 103.723 23.765-14.336 41.344-33.195 51.072-55.851 16.512-38.528 17.493-101.888-34.176-153.515-45.269-45.227-99.712-64.811-181.931-65.408-91.221 0.683-160.256 29.952-205.099 86.955-42.027 53.419-63.701 130.56-64.512 229.248 0.811 98.731 22.528 175.872 64.512 229.248 44.843 57.045 113.877 86.272 205.099 86.955 91.904-0.683 162.091-30.080 208.683-87.381 22.827-28.117 40.064-63.445 51.413-104.661l64.597 17.237c-13.781 50.731-35.413 94.421-64.896 130.688-59.733 73.472-147.072 111.104-259.584 111.915h-0.469c-112.299-0.768-198.656-38.571-256.683-112.299-51.627-65.621-78.251-156.928-79.147-271.403v-0.256s0-0.256 0-0.256c0.896-114.475 27.52-205.781 79.147-271.403 58.027-73.728 144.384-111.531 256.683-112.299h0.469c99.84 0.683 170.197 26.837 228.181 84.736 75.861 75.776 73.557 170.752 48.555 229.077-17.92 41.813-52.139 75.776-98.901 98.219zM523.392 313.984c-41.771-2.347-85.163 16.384-87.296 56.533-1.579 29.781 21.205 62.976 89.856 66.944 7.851 0.469 15.573 0.683 23.168 0.683 24.96 0 48.256-2.432 69.504-7.040-7.893-98.816-54.315-114.859-95.189-117.077z" />
<glyph unicode="&#xe929;" glyph-name="ico__search" d="M781.568 238.763c44.928 57.813 71.765 130.347 71.765 209.237 0 188.501-152.832 341.333-341.333 341.333s-341.333-152.832-341.333-341.333 152.832-341.333 341.333-341.333c78.891 0 151.424 26.837 209.237 71.765l157.099-157.099 60.331 60.331-157.099 157.099zM512 192c-141.397 0-256 114.603-256 256s114.603 256 256 256 256-114.603 256-256-114.603-256-256-256z" />
<glyph unicode="&#xe92a;" glyph-name="ico__settings" d="M512 576c-70.699 0-128-57.301-128-128s57.301-128 128-128 128 57.301 128 128-57.301 128-128 128zM512 405.333c-23.552 0-42.667 19.115-42.667 42.667s19.115 42.667 42.667 42.667 42.667-19.115 42.667-42.667-19.115-42.667-42.667-42.667zM945.493 345.515l-73.899 42.667s-61.995 35.797-61.995 35.797c0.64 7.936 1.024 15.915 1.024 24.021s-0.384 16.085-1.024 24.021l135.893 78.464-128 221.696s-73.899-42.667-73.899-42.667v0s-62.037-35.797-62.037-35.797c-13.141 9.088-27.008 17.152-41.557 24.064v156.885h-256v-156.885c-14.549-6.912-28.416-14.976-41.557-24.064l-135.936 78.464-128-221.696s73.899-42.667 73.899-42.667v0s61.995-35.797 61.995-35.797c-0.64-7.936-1.024-15.915-1.024-24.021s0.384-16.085 1.024-24.021l-135.893-78.464 128-221.696s73.899 42.667 73.899 42.667v0s62.037 35.797 62.037 35.797c13.141-9.088 27.008-17.152 41.557-24.064v-156.885h170.667s85.333 0 85.333 0v0s0 0 0 0v156.885c14.549 6.912 28.459 14.976 41.557 24.064l135.936-78.464 128 221.696zM786.261 240.384l-114.645 66.176c-30.080-33.963-70.827-58.24-116.992-67.627v-132.267h-85.333v132.267c-46.165 9.387-86.869 33.664-116.992 67.627l-114.645-66.176-42.667 73.899 114.603 66.176c-7.083 21.248-10.965 43.947-10.965 67.541s3.883 46.336 10.965 67.541l-114.56 66.176 42.667 73.899 110.848-64s3.755-2.176 3.755-2.176c30.080 33.963 70.827 58.24 116.992 67.627v132.267h85.333v-132.267c46.165-9.387 86.869-33.664 116.992-67.627l114.603 66.176 42.667-73.899-114.603-66.176c7.083-21.248 10.965-43.947 10.965-67.541s-3.883-46.336-10.965-67.541l3.755-2.176 110.848-64-42.667-73.899z" />
<glyph unicode="&#xe92b;" glyph-name="ico__slideleft" d="M444.288 600.96l-60.331 60.373-213.291-213.291 213.333-213.333 60.331 60.331-110.336 110.336h348.629v85.333h-348.629l110.293 110.251zM767.957 789.333h85.333v-682.667h-85.333v682.667z" />
<glyph unicode="&#xe92c;" glyph-name="ico__slideright" horiz-adv-x="994" d="M828.17 432.885l-207.053 207.053-58.555-58.555 107.088-107.088h-338.366v-82.821h338.366l-107.046-107.046 58.596-58.555 206.97 207.011zM165.642 764.211h82.821v-662.569h-82.821v662.569z" />
<glyph unicode="&#xe92d;" glyph-name="ico__step01" d="M469.333 661.333h85.333v-426.667h-85.333v426.667zM896 832v0s-768 0-768 0v0s0 0 0 0v-768s768 0 768 0v0s0 0 0 0v768zM213.333 149.333v597.333h597.333v-597.333h-597.333z" />
<glyph unicode="&#xe92e;" glyph-name="ico__step02" d="M384 661.333h85.333v-426.667h-85.333v426.667zM554.667 661.333h85.333v-426.667h-85.333v426.667zM896 832v0s-768 0-768 0v0s0 0 0 0v-768s768 0 768 0v0s0 0 0 0v768zM810.667 746.667v-597.333h-597.333v597.333h597.333z" />
<glyph unicode="&#xe92f;" glyph-name="ico__step03" d="M298.667 661.333h85.333v-426.667h-85.333v426.667zM469.333 661.333h85.333v-426.667h-85.333v426.667zM640 661.333h85.333v-426.667h-85.333v426.667zM896 832v0s-768 0-768 0v0s0 0 0 0v-768s768 0 768 0v0s0 0 0 0v768zM810.667 746.667v-597.333h-597.333v597.333h597.333z" />
<glyph unicode="&#xe930;" glyph-name="ico__up" d="M572.331 643.669l-60.331 60.331-426.667-426.667 60.373-60.331 366.293 366.336 366.293-366.336 60.373 60.331-366.336 366.336z" />
<glyph unicode="&#xe931;" glyph-name="ico__update" d="M469.333 618.667v-188.331l128-128 60.331 60.331-102.997 102.997v153.003h-85.333zM810.667 704v-90.752c-58.197 105.003-170.112 176.085-298.667 176.085-188.501 0-341.333-152.832-341.333-341.333s152.832-341.333 341.333-341.333c159.061 0 292.693 108.8 330.581 256h-89.216c-35.157-99.413-129.92-170.667-241.365-170.667-141.397 0-256 114.603-256 256s114.603 256 256 256c111.445 0 206.208-71.253 241.365-170.667h-113.365v-85.333h256v256h-85.333z" />
<glyph unicode="&#xe932;" glyph-name="ico__user" d="M170.667 22.187c0 188.501 152.832 341.333 341.333 341.333s341.333-152.832 341.333-341.333h-85.333c0 141.397-114.603 256-256 256s-256-114.603-256-256h-85.333zM512 874.667c-117.803 0-213.333-95.531-213.333-213.333s95.531-213.333 213.333-213.333 213.333 95.531 213.333 213.333-95.531 213.333-213.333 213.333zM512 533.333c-70.699 0-128 57.301-128 128s57.301 128 128 128 128-57.301 128-128-57.301-128-128-128z" />
<glyph unicode="&#xe933;" glyph-name="ico__world" d="M564.864 785.237c-17.237 2.688-34.901 4.096-52.864 4.096s-35.627-1.408-52.864-4.096c-163.2-25.472-288.469-166.997-288.469-337.237s125.269-311.723 288.469-337.237c17.237-2.688 34.901-4.096 52.864-4.096s35.627 1.408 52.864 4.096c163.2 25.472 288.469 166.997 288.469 337.237s-125.269 311.723-288.469 337.237zM512 702.891c16-32.683 34.261-76.416 47.147-126.891h-94.293c12.885 50.475 31.147 94.208 47.147 126.891zM409.685 682.581c-12.331-31.445-23.979-67.371-32.597-106.581h-86.613c27.264 47.019 69.077 84.608 119.253 106.581zM259.627 405.333c-2.347 13.867-3.627 28.117-3.627 42.667s1.28 28.8 3.627 42.667h104.747c-1.067-13.995-1.707-28.203-1.707-42.667s0.64-28.672 1.707-42.667h-104.747zM290.432 320h86.613c8.619-39.253 20.267-75.179 32.597-106.581-50.176 21.973-91.947 59.563-119.253 106.581zM512 193.109c-16 32.683-34.261 76.416-47.147 126.891h94.293c-12.885-50.475-31.147-94.208-47.147-126.891zM573.995 405.333h-123.947c-1.28 13.995-2.005 28.203-2.005 42.667s0.768 28.672 2.005 42.667h123.947c1.28-13.995 2.005-28.203 2.005-42.667s-0.768-28.672-2.005-42.667zM733.568 576h-86.613c-8.619 39.253-20.267 75.179-32.597 106.581 50.176-21.973 91.947-59.563 119.253-106.581zM614.315 213.419c12.331 31.445 23.979 67.371 32.597 106.581h86.613c-27.264-47.019-69.077-84.608-119.253-106.581zM659.627 405.333c1.067 13.995 1.707 28.203 1.707 42.667s-0.64 28.672-1.707 42.667h104.747c2.347-13.867 3.627-28.117 3.627-42.667s-1.28-28.8-3.627-42.667h-104.747z" />
<glyph unicode="" glyph-name="ico__world" d="M564.864 785.237c-17.237 2.688-34.901 4.096-52.864 4.096s-35.627-1.408-52.864-4.096c-163.2-25.472-288.469-166.997-288.469-337.237s125.269-311.723 288.469-337.237c17.237-2.688 34.901-4.096 52.864-4.096s35.627 1.408 52.864 4.096c163.2 25.472 288.469 166.997 288.469 337.237s-125.269 311.723-288.469 337.237zM512 702.891c16-32.683 34.261-76.416 47.147-126.891h-94.293c12.885 50.475 31.147 94.208 47.147 126.891zM409.685 682.581c-12.331-31.445-23.979-67.371-32.597-106.581h-86.613c27.264 47.019 69.077 84.608 119.253 106.581zM259.627 405.333c-2.347 13.867-3.627 28.117-3.627 42.667s1.28 28.8 3.627 42.667h104.747c-1.067-13.995-1.707-28.203-1.707-42.667s0.64-28.672 1.707-42.667h-104.747zM290.432 320h86.613c8.619-39.253 20.267-75.179 32.597-106.581-50.176 21.973-91.947 59.563-119.253 106.581zM512 193.109c-16 32.683-34.261 76.416-47.147 126.891h94.293c-12.885-50.475-31.147-94.208-47.147-126.891zM573.995 405.333h-123.947c-1.28 13.995-2.005 28.203-2.005 42.667s0.768 28.672 2.005 42.667h123.947c1.28-13.995 2.005-28.203 2.005-42.667s-0.768-28.672-2.005-42.667zM733.568 576h-86.613c-8.619 39.253-20.267 75.179-32.597 106.581 50.176-21.973 91.947-59.563 119.253-106.581zM614.315 213.419c12.331 31.445 23.979 67.371 32.597 106.581h86.613c-27.264-47.019-69.077-84.608-119.253-106.581zM659.627 405.333c1.067 13.995 1.707 28.203 1.707 42.667s-0.64 28.672-1.707 42.667h104.747c2.347-13.867 3.627-28.117 3.627-42.667s-1.28-28.8-3.627-42.667h-104.747z" />
<glyph unicode="world" glyph-name="ico__world" d="M564.864 785.237c-17.237 2.688-34.901 4.096-52.864 4.096s-35.627-1.408-52.864-4.096c-163.2-25.472-288.469-166.997-288.469-337.237s125.269-311.723 288.469-337.237c17.237-2.688 34.901-4.096 52.864-4.096s35.627 1.408 52.864 4.096c163.2 25.472 288.469 166.997 288.469 337.237s-125.269 311.723-288.469 337.237zM512 702.891c16-32.683 34.261-76.416 47.147-126.891h-94.293c12.885 50.475 31.147 94.208 47.147 126.891zM409.685 682.581c-12.331-31.445-23.979-67.371-32.597-106.581h-86.613c27.264 47.019 69.077 84.608 119.253 106.581zM259.627 405.333c-2.347 13.867-3.627 28.117-3.627 42.667s1.28 28.8 3.627 42.667h104.747c-1.067-13.995-1.707-28.203-1.707-42.667s0.64-28.672 1.707-42.667h-104.747zM290.432 320h86.613c8.619-39.253 20.267-75.179 32.597-106.581-50.176 21.973-91.947 59.563-119.253 106.581zM512 193.109c-16 32.683-34.261 76.416-47.147 126.891h94.293c-12.885-50.475-31.147-94.208-47.147-126.891zM573.995 405.333h-123.947c-1.28 13.995-2.005 28.203-2.005 42.667s0.768 28.672 2.005 42.667h123.947c1.28-13.995 2.005-28.203 2.005-42.667s-0.768-28.672-2.005-42.667zM733.568 576h-86.613c-8.619 39.253-20.267 75.179-32.597 106.581 50.176-21.973 91.947-59.563 119.253-106.581zM614.315 213.419c12.331 31.445 23.979 67.371 32.597 106.581h86.613c-27.264-47.019-69.077-84.608-119.253-106.581zM659.627 405.333c1.067 13.995 1.707 28.203 1.707 42.667s-0.64 28.672-1.707 42.667h104.747c2.347-13.867 3.627-28.117 3.627-42.667s-1.28-28.8-3.627-42.667h-104.747z" />
<glyph unicode="user" glyph-name="ico__user" d="M170.667 22.187c0 188.501 152.832 341.333 341.333 341.333s341.333-152.832 341.333-341.333h-85.333c0 141.397-114.603 256-256 256s-256-114.603-256-256h-85.333zM512 874.667c-117.803 0-213.333-95.531-213.333-213.333s95.531-213.333 213.333-213.333 213.333 95.531 213.333 213.333-95.531 213.333-213.333 213.333zM512 533.333c-70.699 0-128 57.301-128 128s57.301 128 128 128 128-57.301 128-128-57.301-128-128-128z" />
<glyph unicode="update" glyph-name="ico__update" d="M469.333 618.667v-188.331l128-128 60.331 60.331-102.997 102.997v153.003h-85.333zM810.667 704v-90.752c-58.197 105.003-170.112 176.085-298.667 176.085-188.501 0-341.333-152.832-341.333-341.333s152.832-341.333 341.333-341.333c159.061 0 292.693 108.8 330.581 256h-89.216c-35.157-99.413-129.92-170.667-241.365-170.667-141.397 0-256 114.603-256 256s114.603 256 256 256c111.445 0 206.208-71.253 241.365-170.667h-113.365v-85.333h256v256h-85.333z" />
<glyph unicode="up" glyph-name="ico__up" d="M572.331 643.669l-60.331 60.331-426.667-426.667 60.373-60.331 366.293 366.336 366.293-366.336 60.373 60.331-366.336 366.336z" />
<glyph unicode="threads" glyph-name="ico__rs_threads" d="M695.765 476.032c-3.328 1.579-6.656 3.115-10.069 4.565-5.931 109.227-65.621 171.776-165.845 172.416-0.469 0-0.896 0-1.365 0-59.947 0-109.781-25.6-140.459-72.149l55.125-37.803c22.912 34.773 58.88 42.197 85.376 42.197 0.299 0 0.597 0 0.896 0 32.981-0.213 57.899-9.813 74.027-28.501 11.733-13.611 19.584-32.427 23.467-56.192-29.269 4.992-60.885 6.485-94.72 4.565-95.275-5.504-156.544-61.056-152.405-138.283 2.091-39.168 21.589-72.875 54.955-94.891 28.203-18.603 64.512-27.691 102.229-25.643 49.835 2.731 88.917 21.76 116.181 56.491 20.693 26.411 33.792 60.629 39.595 103.723 23.765-14.336 41.344-33.195 51.072-55.851 16.512-38.528 17.493-101.888-34.176-153.515-45.269-45.227-99.712-64.811-181.931-65.408-91.221 0.683-160.256 29.952-205.099 86.955-42.027 53.419-63.701 130.56-64.512 229.248 0.811 98.731 22.528 175.872 64.512 229.248 44.843 57.045 113.877 86.272 205.099 86.955 91.904-0.683 162.091-30.080 208.683-87.381 22.827-28.117 40.064-63.445 51.413-104.661l64.597 17.237c-13.781 50.731-35.413 94.421-64.896 130.688-59.733 73.472-147.072 111.104-259.584 111.915h-0.469c-112.299-0.768-198.656-38.571-256.683-112.299-51.627-65.621-78.251-156.928-79.147-271.403v-0.256s0-0.256 0-0.256c0.896-114.475 27.52-205.781 79.147-271.403 58.027-73.728 144.384-111.531 256.683-112.299h0.469c99.84 0.683 170.197 26.837 228.181 84.736 75.861 75.776 73.557 170.752 48.555 229.077-17.92 41.813-52.139 75.776-98.901 98.219zM523.392 313.984c-41.771-2.347-85.163 16.384-87.296 56.533-1.579 29.781 21.205 62.976 89.856 66.944 7.851 0.469 15.573 0.683 23.168 0.683 24.96 0 48.256-2.432 69.504-7.040-7.893-98.816-54.315-114.859-95.189-117.077z" />
<glyph unicode="steptwo" glyph-name="ico__step02" d="M384 661.333h85.333v-426.667h-85.333v426.667zM554.667 661.333h85.333v-426.667h-85.333v426.667zM896 832v0s-768 0-768 0v0s0 0 0 0v-768s768 0 768 0v0s0 0 0 0v768zM810.667 746.667v-597.333h-597.333v597.333h597.333z" />
<glyph unicode="stepthree" glyph-name="ico__step03" d="M298.667 661.333h85.333v-426.667h-85.333v426.667zM469.333 661.333h85.333v-426.667h-85.333v426.667zM640 661.333h85.333v-426.667h-85.333v426.667zM896 832v0s-768 0-768 0v0s0 0 0 0v-768s768 0 768 0v0s0 0 0 0v768zM810.667 746.667v-597.333h-597.333v597.333h597.333z" />
<glyph unicode="stepone" glyph-name="ico__step01" d="M469.333 661.333h85.333v-426.667h-85.333v426.667zM896 832v0s-768 0-768 0v0s0 0 0 0v-768s768 0 768 0v0s0 0 0 0v768zM213.333 149.333v597.333h597.333v-597.333h-597.333z" />
<glyph unicode="slider" glyph-name="ico__slideright" horiz-adv-x="994" d="M828.17 432.885l-207.053 207.053-58.555-58.555 107.088-107.088h-338.366v-82.821h338.366l-107.046-107.046 58.596-58.555 206.97 207.011zM165.642 764.211h82.821v-662.569h-82.821v662.569z" />
<glyph unicode="slidel" glyph-name="ico__slideleft" d="M444.288 600.96l-60.331 60.373-213.291-213.291 213.333-213.333 60.331 60.331-110.336 110.336h348.629v85.333h-348.629l110.293 110.251zM767.957 789.333h85.333v-682.667h-85.333v682.667z" />
<glyph unicode="settings" glyph-name="ico__settings" d="M512 576c-70.699 0-128-57.301-128-128s57.301-128 128-128 128 57.301 128 128-57.301 128-128 128zM512 405.333c-23.552 0-42.667 19.115-42.667 42.667s19.115 42.667 42.667 42.667 42.667-19.115 42.667-42.667-19.115-42.667-42.667-42.667zM945.493 345.515l-73.899 42.667s-61.995 35.797-61.995 35.797c0.64 7.936 1.024 15.915 1.024 24.021s-0.384 16.085-1.024 24.021l135.893 78.464-128 221.696s-73.899-42.667-73.899-42.667v0s-62.037-35.797-62.037-35.797c-13.141 9.088-27.008 17.152-41.557 24.064v156.885h-256v-156.885c-14.549-6.912-28.416-14.976-41.557-24.064l-135.936 78.464-128-221.696s73.899-42.667 73.899-42.667v0s61.995-35.797 61.995-35.797c-0.64-7.936-1.024-15.915-1.024-24.021s0.384-16.085 1.024-24.021l-135.893-78.464 128-221.696s73.899 42.667 73.899 42.667v0s62.037 35.797 62.037 35.797c13.141-9.088 27.008-17.152 41.557-24.064v-156.885h170.667s85.333 0 85.333 0v0s0 0 0 0v156.885c14.549 6.912 28.459 14.976 41.557 24.064l135.936-78.464 128 221.696zM786.261 240.384l-114.645 66.176c-30.080-33.963-70.827-58.24-116.992-67.627v-132.267h-85.333v132.267c-46.165 9.387-86.869 33.664-116.992 67.627l-114.645-66.176-42.667 73.899 114.603 66.176c-7.083 21.248-10.965 43.947-10.965 67.541s3.883 46.336 10.965 67.541l-114.56 66.176 42.667 73.899 110.848-64s3.755-2.176 3.755-2.176c30.080 33.963 70.827 58.24 116.992 67.627v132.267h85.333v-132.267c46.165-9.387 86.869-33.664 116.992-67.627l114.603 66.176 42.667-73.899-114.603-66.176c7.083-21.248 10.965-43.947 10.965-67.541s-3.883-46.336-10.965-67.541l3.755-2.176 110.848-64-42.667-73.899z" />
<glyph unicode="search" glyph-name="ico__search" d="M781.568 238.763c44.928 57.813 71.765 130.347 71.765 209.237 0 188.501-152.832 341.333-341.333 341.333s-341.333-152.832-341.333-341.333 152.832-341.333 341.333-341.333c78.891 0 151.424 26.837 209.237 71.765l157.099-157.099 60.331 60.331-157.099 157.099zM512 192c-141.397 0-256 114.603-256 256s114.603 256 256 256 256-114.603 256-256-114.603-256-256-256z" />
<glyph unicode="right" glyph-name="ico__right" d="M707.669 387.669l60.331 60.331-426.667 426.667-60.331-60.373 366.336-366.293-366.336-366.293 60.331-60.373 366.336 366.336z" />
<glyph unicode="news" glyph-name="ico__news" d="M426.667 661.333h341.333v-85.333h-341.333v85.333zM256 661.333h85.333v-256h-85.333v256zM426.667 490.667h341.333v-85.333h-341.333v85.333zM426.667 320h341.333v-85.333h-341.333v85.333zM256 320h85.333v-85.333h-85.333v85.333zM938.667 832h-853.333v-768h853.333v768zM170.667 746.667h682.667v-597.333h-682.667v597.333z" />
<glyph unicode="morevert" glyph-name="ico__more_vert" d="M576 448c0-35.346-28.654-64-64-64s-64 28.654-64 64c0 35.346 28.654 64 64 64s64-28.654 64-64zM576 640c0-35.346-28.654-64-64-64s-64 28.654-64 64c0 35.346 28.654 64 64 64s64-28.654 64-64zM576 256c0-35.346-28.654-64-64-64s-64 28.654-64 64c0 35.346 28.654 64 64 64s64-28.654 64-64z" />
<glyph unicode="more" glyph-name="ico__more" d="M85.333 490.667h853.333v-85.333h-853.333v85.333zM469.333 21.333v853.333h85.333v-853.333h-85.333z" />
<glyph unicode="menu" glyph-name="ico__menu" d="M128 490.667h810.667v-85.333h-810.667v85.333zM128 704h810.667v-85.333h-810.667v85.333zM128 277.333h810.667v-85.333h-810.667v85.333z" />
<glyph unicode="logout" glyph-name="ico__logout" d="M85.333 874.667h85.333v-853.333h-85.333v853.333zM85.376 874.667h426.624v-85.333h-426.624v85.333zM512 490.667h341.333v-85.333h-341.333v85.333zM725.333 661.348l213.331-213.331-60.34-60.34-213.331 213.331 60.34 60.34zM665.048 295.058l213.271 213.271 60.34-60.34-213.271-213.271-60.34 60.34zM85.376 106.667h426.624v-85.333h-426.624v85.333z" />
<glyph unicode="linkedin" glyph-name="ico__rs_linkedin" d="M187.691 106.667h128v473.6h-128v-473.6zM251.691 789.333c-42.667 0-76.8-34.133-76.8-76.8s34.133-76.8 76.8-76.8 76.8 34.133 76.8 76.8-34.133 76.8-76.8 76.8zM533.291 507.733v72.533h-128v-473.6h128v243.2c0 136.533 174.933 145.067 174.933 0v-243.2h128v290.133c0 230.4-243.2 221.867-302.933 110.933z" />
<glyph unicode="lightm" glyph-name="ico__lightmode" d="M512 661.333c-117.803 0-213.333-95.531-213.333-213.333s95.531-213.333 213.333-213.333 213.333 95.531 213.333 213.333-95.531 213.333-213.333 213.333zM512 320c-70.699 0-128 57.301-128 128s57.301 128 128 128 128-57.301 128-128-57.301-128-128-128zM469.333 874.667h85.333v-128h-85.333v128zM180.155 719.512l60.34 60.34 90.51-90.51-60.34-60.34-90.51 90.51zM85.333 405.333v85.333h128v-85.333h-128zM240.464 116.13l-60.34 60.34 90.51 90.51 60.34-60.34-90.51-90.51zM554.667 21.333h-85.333v128h85.333v-128zM843.895 176.488l-60.34-60.34-90.51 90.51 60.34 60.34 90.51-90.51zM938.667 490.667v-85.333h-128v85.333h128zM783.487 779.87l60.34-60.34-90.51-90.51-60.34 60.34 90.51 90.51z" />
<glyph unicode="less" glyph-name="ico__less" d="M85.333 490.667h853.333v-85.333h-853.333v85.333z" />
<glyph unicode="left" glyph-name="ico__left" d="M328.832 508.331l-60.331-60.331 426.667-426.667 60.331 60.373-366.293 366.293 366.293 366.293-60.331 60.373-366.336-366.336z" />
<glyph unicode="insta" glyph-name="ico__rs_instagram" d="M512 657.493c-115.627 0-209.493-93.867-209.493-209.493s93.867-209.493 209.493-209.493 209.493 93.867 209.493 209.493-93.867 209.493-209.493 209.493zM512 308.48c-77.227 0-139.52 62.293-139.52 139.52s62.293 139.52 139.52 139.52 139.52-62.293 139.52-139.52-62.72-139.52-139.52-139.52zM756.48 657.493c0-19.323-15.664-34.987-34.987-34.987s-34.987 15.664-34.987 34.987c0 19.323 15.664 34.987 34.987 34.987s34.987-15.664 34.987-34.987zM872.96 717.653c-20.053 39.253-52.053 71.68-91.733 91.733-44.8 22.613-103.253 22.613-220.587 22.613h-97.707c-117.333 0-175.787 0-220.587-22.613-39.253-20.053-71.68-52.053-91.733-91.733-22.613-44.8-22.613-103.253-22.613-220.587v-97.707c0-117.333 0-175.787 22.613-220.587 20.053-39.253 52.053-71.68 91.733-91.733 44.8-22.613 103.253-22.613 220.587-22.613h97.707c117.333 0 175.787 0 220.587 22.613 39.253 20.053 71.68 52.053 91.733 91.733 22.613 44.8 22.613 103.253 22.613 220.587v97.707c0 117.333 0 175.787-22.613 220.587zM826.027 399.36c0-59.733 0-100.267-2.56-131.84-2.56-30.72-7.253-46.080-12.8-57.173-13.227-26.453-34.56-47.787-61.013-61.013-11.093-5.547-26.453-10.24-57.173-12.8-31.573-2.56-72.107-2.56-131.84-2.56h-97.707c-59.733 0-100.267 0-131.84 2.56-30.72 2.56-46.080 6.827-57.173 12.8-26.453 13.227-47.787 34.56-61.013 61.013-5.547 11.093-10.24 26.453-12.8 57.173-2.56 31.573-2.56 72.107-2.56 131.84v97.707c0 59.733 0 100.267 2.56 131.84 2.56 30.72 7.253 46.080 12.8 57.173 13.227 26.453 34.56 47.787 61.013 61.013 11.093 5.547 26.453 10.24 57.173 12.373 31.573 2.56 72.107 2.56 131.84 2.56h97.707c59.733 0 100.267 0 131.84-2.56 30.72-2.56 46.080-7.253 57.173-12.8 26.453-13.227 47.787-34.56 61.013-61.013 5.547-11.093 10.24-26.453 12.8-57.173 2.56-31.573 2.56-72.107 2.56-131.84v-97.707z" />
<glyph unicode="infoalt" glyph-name="ico__info--alt" d="M512 832c-212.096 0-384-171.904-384-384s171.904-384 384-384 384 171.904 384 384-171.904 384-384 384zM554.667 234.667h-85.333v256h85.333v-256zM512 576c-23.552 0-42.667 19.115-42.667 42.667s19.115 42.667 42.667 42.667 42.667-19.115 42.667-42.667-19.115-42.667-42.667-42.667z" />
<glyph unicode="info" glyph-name="ico__info" d="M512 874.667c-235.648 0-426.667-191.019-426.667-426.667s191.019-426.667 426.667-426.667 426.667 191.019 426.667 426.667-191.019 426.667-426.667 426.667zM512 106.667c-188.501 0-341.333 152.832-341.333 341.333s152.832 341.333 341.333 341.333 341.333-152.832 341.333-341.333-152.832-341.333-341.333-341.333zM554.667 618.667c0-23.564-19.103-42.667-42.667-42.667s-42.667 19.103-42.667 42.667c0 23.564 19.103 42.667 42.667 42.667s42.667-19.103 42.667-42.667zM469.333 490.667h85.333v-256h-85.333v256z" />
<glyph unicode="icoarrowdl" glyph-name="ico__arrow_down_left" d="M316.287 191.362l-60.34 60.34 452.548 452.548 60.34-60.34-452.548-452.548zM768.384 276.48v-85.333h-511.36v85.333h511.36zM255.573 703.787h85.333v-511.189h-85.333v511.189z" />
<glyph unicode="icoaddbook" glyph-name="ico__addbook" d="M768 277.333h85.333v-256h-85.333v256zM682.667 106.667v85.333h256v-85.333h-256zM85.333 192h512v-85.333h-512v85.333zM85.333 874.837h597.333v-85.333h-597.333v85.333zM597.333 874.837h85.333v-597.504h-85.333v597.504zM85.333 874.837h85.333v-768.171h-85.333v768.171zM256 874.837h85.333v-768.171h-85.333v768.171z" />
<glyph unicode="hide" glyph-name="ico__hide" d="M756.395 512.64c27.477-22.528 50.987-45.312 69.419-64.64-18.347-19.2-41.728-41.856-68.992-64.256l60.587-60.587c75.008 62.933 121.216 124.843 121.216 124.843s-191.019 256-426.667 256c-23.253 0-46.123-2.517-68.352-7.040l78.549-78.549c91.392-3.883 177.365-59.136 234.24-105.813zM748.587 271.744l-492.416 492.416-72.832-72.832 77.141-77.141c-106.155-73.771-175.147-166.187-175.147-166.187s191.019-256 426.667-256c49.579 0 97.152 11.349 141.397 29.269l101.931-101.931 72.832 72.832-79.573 79.573zM512 277.333c-95.189 0-185.429 57.643-244.395 106.027-27.477 22.528-50.987 45.312-69.419 64.64 18.432 19.328 41.941 42.112 69.419 64.64 16 13.099 34.304 26.923 54.4 40.064l67.584-67.584c-3.627-11.819-5.547-24.363-5.547-37.376 0-70.699 57.301-128 128-128 13.013 0 25.557 1.963 37.376 5.547l36.949-36.949c-24.107-6.869-49.024-11.008-74.325-11.008z" />
<glyph unicode="help" glyph-name="ico__help" d="M576 128c0-35.346-28.654-64-64-64s-64 28.654-64 64c0 35.346 28.654 64 64 64s64-28.654 64-64zM469.333 448h85.333v-170.667h-85.333v170.667zM512 362.667c141.397 0 256 114.603 256 256s-114.603 256-256 256-256-114.603-256-256h85.333c0 94.251 76.416 170.667 170.667 170.667s170.667-76.416 170.667-170.667-76.416-170.667-170.667-170.667v-85.333z" />
<glyph unicode="github" glyph-name="ico__rs_github" d="M512 789.333c-193.365 0-349.952-156.629-349.952-349.952 0-154.88 100.181-285.653 239.275-332.032 17.493-3.072 24.064 7.424 24.064 16.64 0 8.32-0.427 35.883-0.427 65.195-87.936-16.171-110.677 21.419-117.675 41.131-3.925 10.069-20.992 41.131-35.883 49.451-12.245 6.571-29.739 22.741-0.427 23.168 27.563 0.427 47.232-25.387 53.803-35.883 31.488-52.949 81.792-38.059 101.931-28.885 3.072 22.741 12.245 38.059 22.315 46.805-77.867 8.747-159.232 38.955-159.232 172.8 0 38.059 13.568 69.547 35.883 94.037-3.499 8.747-15.744 44.629 3.499 92.757 0 0 29.312 9.173 96.256-35.883 27.989 7.893 57.728 11.819 87.509 11.819s59.477-3.925 87.509-11.819c66.944 45.483 96.256 35.883 96.256 35.883 19.243-48.128 6.997-84.011 3.499-92.757 22.315-24.491 35.883-55.552 35.883-94.037 0-134.315-81.792-164.053-159.659-172.8 12.672-10.923 23.637-31.915 23.637-64.725 0-46.805-0.427-84.437-0.427-96.256 0-9.173 6.571-20.139 24.064-16.64 138.24 46.379 238.421 177.621 238.421 332.032 0 193.365-156.629 349.952-349.952 349.952z" />
<glyph unicode="filter" glyph-name="ico__filter" d="M938.667 277.333h-135.296c-17.579 49.707-64.981 85.333-120.704 85.333s-103.125-35.627-120.704-85.333h-476.629v-85.333h476.629c17.579-49.707 64.981-85.333 120.704-85.333s103.125 35.627 120.704 85.333h135.296v85.333zM682.667 192c-23.552 0-42.667 19.115-42.667 42.667s19.115 42.667 42.667 42.667 42.667-19.115 42.667-42.667-19.115-42.667-42.667-42.667zM85.333 618.667h135.296c17.579-49.707 64.981-85.333 120.704-85.333s103.125 35.627 120.704 85.333h476.629v85.333h-476.629c-17.579 49.707-64.981 85.333-120.704 85.333s-103.125-35.627-120.704-85.333h-135.296v-85.333zM341.333 704c23.552 0 42.667-19.115 42.667-42.667s-19.115-42.667-42.667-42.667-42.667 19.115-42.667 42.667 19.115 42.667 42.667 42.667z" />
<glyph unicode="favorite" glyph-name="ico__favorite" d="M678.101 796.843c-64.896 0-123.648-26.325-166.101-68.907-42.496 42.581-101.205 68.907-166.101 68.907-208.811 0.597-312.533-256.128-165.76-400.768l-0.171-0.171 331.861-331.861 331.861 331.861c147.072 144.683 43.307 401.579-165.547 400.981zM827.435 562.176c0-41.429-16.853-78.891-44.117-105.941v0c-84.523-84.565-186.752-186.752-271.36-271.36-84.651 84.651-186.923 186.923-271.531 271.531v0c-93.483 92.075-27.52 255.488 105.429 255.104 82.304 0.64 149.888-68.48 149.333-149.333h33.579c-0.085 39.424 16.043 77.867 43.392 105.216 91.947 93.739 255.701 27.776 255.275-105.216z" />
<glyph unicode="eye" glyph-name="ico__eye" d="M512 704c-235.648 0-426.667-256-426.667-256s191.019-256 426.667-256 426.667 256 426.667 256c0 0-191.019 256-426.667 256zM756.437 383.36c-58.965-48.384-149.248-106.027-244.395-106.027s-185.429 57.643-244.395 106.027c-27.477 22.528-50.987 45.312-69.419 64.64 18.432 19.328 41.941 42.112 69.419 64.64 58.965 48.384 149.248 106.027 244.395 106.027s185.429-57.643 244.395-106.027c27.477-22.528 50.987-45.312 69.419-64.64-18.432-19.328-41.941-42.112-69.419-64.64zM511.701 575.701c-70.699 0-128-57.301-128-128s57.301-128 128-128 128 57.301 128 128-57.301 128-128 128zM511.701 405.035c-23.552 0-42.667 19.115-42.667 42.667s19.115 42.667 42.667 42.667 42.667-19.115 42.667-42.667-19.115-42.667-42.667-42.667z" />
<glyph unicode="expand" glyph-name="ico__expand" d="M768 704v0h-256v-85.333h170.667v-170.667h85.333v256zM341.333 448h-85.333v-256h256v85.333h-170.667v170.667z" />
<glyph unicode="edit" glyph-name="ico__edit" d="M85.589 277.589h85.333v-256h-85.333v256zM85.589 106.923h255.659v-85.333h-255.659v85.333zM512 106.923h426.667v-85.333h-426.667v85.333zM878.677 558.677l60.373 60.331-256.683 256.512-597.674-597.717 60.331-60.331 537.429 537.429 135.893-135.893-537.429-537.429 60.331-60.331 537.429 537.429z" />
<glyph unicode="downld" glyph-name="ico__download" d="M554.624 874.667v-468.48h-85.333v468.48h85.333zM725.292 540.689l-213.331-213.331-60.34 60.34 213.331 213.331 60.34-60.34zM359.024 600.96l213.271-213.271-60.34-60.34-213.271 213.271 60.34 60.34zM85.333 21.333v85.333h853.333v-85.333h-853.333zM85.333 21.333v255.957h85.333v-255.957h-85.333zM853.333 21.333v255.957h85.333v-255.957h-85.333z" />
<glyph unicode="down" glyph-name="ico__down" d="M451.669 252.331l60.331-60.331 426.667 426.667-60.373 60.331-366.293-366.336-366.293 366.336-60.373-60.331 366.336-366.336z" />
<glyph unicode="delete" glyph-name="ico__delete" d="M384 533.333h85.333v-340.779h-85.333v340.779zM554.667 532.779h85.333v-340.779h-85.333v340.779zM938.667 704h-217.6c-19.755 97.365-105.856 170.667-209.067 170.667s-189.269-73.301-209.067-170.667h-217.6v-85.333h128v-597.333h597.333v597.333h128v85.333zM512 789.333c55.723 0 103.125-35.627 120.704-85.333h-241.365c17.579 49.707 64.981 85.333 120.704 85.333zM725.333 106.667h-426.667v512h426.667v-512z" />
<glyph unicode="darkm" glyph-name="ico__darkmode" d="M838.272 548.565c-14.891-33.024-39.979-60.416-71.296-78.251-24.875-14.165-53.632-22.315-84.309-22.315-94.251 0-170.667 76.416-170.667 170.667 0 30.677 8.149 59.435 22.315 84.309 17.835 31.275 45.227 56.363 78.251 71.296-31.787 9.771-65.536 15.061-100.565 15.061-6.955 0-13.824-0.256-20.693-0.683-178.859-10.709-320.64-159.104-320.64-340.651s152.832-341.333 341.333-341.333 329.941 141.781 340.651 320.64c0.427 6.869 0.683 13.739 0.683 20.693 0 34.987-5.291 68.779-15.061 100.565zM512 192c-141.397 0-256 114.603-256 256 0 115.541 76.544 213.163 181.675 244.992-7.125-23.509-11.008-48.469-11.008-74.325 0-141.397 114.603-256 256-256 25.856 0 50.816 3.883 74.325 11.008-31.872-105.131-129.493-181.675-244.992-181.675z" />
<glyph unicode="collap" glyph-name="ico__collapse" d="M640 576v170.667h-85.333v-256h256v85.333h-170.667zM469.333 405.333h-256v-85.333h170.667v-170.667h85.333v256z" />
<glyph unicode="close" glyph-name="ico__close" d="M938.667 814.293l-60.373 60.373-366.293-366.336-366.293 366.336-60.373-60.373 366.336-366.293-366.336-366.293 60.373-60.373 366.293 366.336 366.293-366.336 60.373 60.373-366.336 366.293 366.336 366.293z" />
<glyph unicode="cart" glyph-name="ico__cart" d="M721.067 704c-19.755 97.365-105.856 170.667-209.067 170.667s-189.269-73.301-209.067-170.667h-132.267v-682.667h682.667v682.667h-132.267zM512 789.333c55.723 0 103.125-35.627 120.704-85.333h-241.365c17.579 49.707 64.981 85.333 120.704 85.333zM768 106.667h-512v512h512v-512z" />
<glyph unicode="bug" glyph-name="ico__bug" d="M597.333 234.667h85.333v-85.333h-85.333v85.333zM853.333 405.333h85.333v-170.667h-85.333v170.667zM85.333 405.333h85.333v-170.667h-85.333v170.667zM341.333 234.667h85.333v-85.333h-85.333v85.333zM682.667 576h-341.333v85.333h-85.333v-170.667h-85.333v-85.333h85.333v-170.667h85.333v85.333h341.333v-85.333h85.333v170.667h85.333v85.333h-85.333v170.667h-85.333v-85.333zM341.333 405.333v85.333h85.333v-85.333h-85.333zM682.667 405.333h-85.333v85.333h85.333v-85.333zM768 746.667h85.333v-85.333h-85.333v85.333zM853.333 661.333h85.333v-85.333h-85.333v85.333zM170.667 746.667h85.333v-85.333h-85.333v85.333zM85.333 661.333h85.333v-85.333h-85.333v85.333z" />
<glyph unicode="book" glyph-name="ico__book" d="M938.667 789.333h-853.333v-682.667h853.333v682.667zM170.667 704h298.667v-512h-298.667v512zM853.333 192h-298.667v512h298.667v-512zM597.333 618.667h213.333v-85.333h-213.333v85.333zM597.333 490.667h213.333v-85.333h-213.333v85.333zM597.333 362.667h213.333v-85.333h-213.333v85.333z" />
<glyph unicode="behance" glyph-name="ico__rs_behance" d="M445.611 470.229c37.675 18.005 57.344 45.269 57.344 87.723 0 83.669-62.336 104.064-134.272 104.064h-198.059v-420.011h203.605c76.331 0 148.011 36.608 148.011 121.941 0 52.736-25.003 91.733-76.672 106.325v0zM262.997 590.293h86.656c33.323 0 63.275-9.344 63.275-48 0-35.669-23.339-50.005-56.277-50.005h-93.611s0 98.005 0 98.005zM361.728 313.301h-98.731v115.669h100.608c40.661 0 66.389-16.939 66.389-59.989s-30.677-55.723-68.267-55.723v0zM786.603 598.571h-170.325v41.344h170.325v-41.344zM853.333 389.632c0 89.941-52.608 164.992-148.011 164.992s-155.605-69.675-155.605-160.939 59.605-159.659 155.605-159.659c72.661 0 119.723 32.725 142.336 102.272h-73.728c-7.936-25.941-40.661-39.723-66.005-39.723-48.939 0-74.667 28.672-74.667 77.397h219.392c0.341 4.992 0.725 10.325 0.725 15.659zM633.344 426.624c2.731 39.936 29.269 64.939 69.333 64.939s63.061-24.661 66.603-64.939h-135.936z" />
<glyph unicode="arrowtr" glyph-name="ico__arrow_top_right" d="M767.36 703.189v1.493h-511.36v-85.333h367.019l-367.445-367.445 60.331-60.331 367.573 367.573v-367.147h85.333v511.189h-1.451z" />
<glyph unicode="arrowtl" glyph-name="ico__arrow_top_left" d="M255.851 643.999l60.34 60.34 452.548-452.548-60.34-60.34-452.548 452.548zM340.992 191.915h-85.333v511.36h85.333v-511.36zM768.299 704.768v-85.333h-511.189v85.333h511.189z" />
<glyph unicode="arrowt" glyph-name="ico__arrow_top" d="M555.093 63.531h-85.333v640h85.333v-640zM187.858 345.452l-60.34 60.34 383.52 383.52 60.34-60.34-383.52-383.52zM896.465 406.006l-60.34-60.34-383.308 383.308 60.34 60.34 383.308-383.308z" />
<glyph unicode="arrowr" glyph-name="ico__arrow_right" d="M874.88 448.939l-383.531 383.531-60.331-60.373 281.899-281.899h-563.797v-85.333h563.115l-281.003-280.96 60.331-60.373 383.317 383.317-1.024 1.024 1.024 1.067z" />
<glyph unicode="arrowl" glyph-name="ico__arrow_left" d="M874.923 491.136v-85.333h-640v85.333h640zM592.974 123.878l-60.34-60.34-383.52 383.52 60.34 60.34 383.52-383.52zM532.405 832.438l60.34-60.34-383.308-383.308-60.34 60.34 383.308 383.308z" />
<glyph unicode="arrowdr" glyph-name="ico__arrow_down_right" d="M768.525 251.755l-60.34-60.34-452.548 452.548 60.34 60.34 452.548-452.548zM683.435 703.872h85.333v-511.36h-85.333v511.36zM256.085 191.061v85.333h511.189v-85.333h-511.189z" />
<glyph unicode="arrowd" glyph-name="ico__arrow_down" d="M896.469 447.104l-60.373 60.331-281.899-281.899v563.797h-85.333v-563.115l-280.96 281.003-60.373-60.373 383.317-383.275 1.024 1.024 1.067-1.024 383.531 383.531z" />
</font>
</defs>
</svg>
